<svg width="441" height="434" viewBox="0 0 441 434" fill="none" xmlns="http://www.w3.org/2000/svg">
<g clip-path="url(#clip0_125_61)">
<path d="M377.356 432.675L377.365 432.278C377.549 425.628 379.214 419.097 382.244 413.139C385.274 407.181 389.597 401.939 394.912 397.776C397.912 395.465 401.198 393.531 404.693 392.021L405.026 391.876L405.083 392.228C405.76 396.427 406.832 400.712 407.331 402.615L410.678 389.862L411.05 389.758C412.756 389.269 414.572 389.29 416.265 389.818C417.959 390.346 419.451 391.357 420.55 392.721C421.697 394.085 422.4 395.753 422.567 397.511C422.735 399.268 422.359 401.034 421.489 402.582C420.709 404.001 419.942 405.482 419.2 406.914C416.652 411.834 414.016 416.923 410.176 420.876C407.239 423.841 403.661 426.127 399.703 427.569C395.745 429.01 391.507 429.57 387.299 429.208L377.356 432.675Z" fill="#F2F2F2"/>
<path d="M335.622 426.777L329.798 426.776L327.026 404.84L335.623 404.841L335.622 426.777Z" fill="#FFB6B6"/>
<path d="M335.827 432.709L317.916 432.709V432.488C317.916 430.682 318.65 428.951 319.958 427.675C321.265 426.398 323.038 425.681 324.887 425.681H324.888L328.16 423.257L334.264 425.681L335.828 425.681L335.827 432.709Z" fill="#2F2E41"/>
<path d="M395.915 410.755L391.314 414.242L375.349 398.572L382.141 393.426L395.915 410.755Z" fill="#FFB6B6"/>
<path d="M399.803 415.319L385.652 426.041L385.514 425.866C384.38 424.44 383.873 422.633 384.104 420.842C384.336 419.051 385.286 417.423 386.747 416.316L386.747 416.315L387.81 412.442L394.154 410.703L395.389 409.767L399.803 415.319Z" fill="#2F2E41"/>
<path d="M370.72 304.623C370.72 304.623 370.322 310.562 369.821 319.052C369.739 320.444 370.224 321.957 370.137 323.472C370.08 324.477 369.452 325.454 369.393 326.501C369.332 327.607 370.199 328.586 370.137 329.73C370.077 330.847 369.088 332.129 369.028 333.273C368.386 345.581 366.058 360.316 368.389 364.435C369.538 366.465 387.036 394.588 387.036 394.588C387.036 394.588 378.878 406.536 376.547 402.553C373.469 397.293 349.742 372.684 349.742 367.985C349.742 363.291 344.253 328.114 344.253 328.114L340.426 348.932L338.671 353.056L339.222 355.477L338.088 358.745L338.027 361.979L336.923 367.985C336.923 367.985 340.244 414.774 338.374 416.077C336.497 417.385 327.413 419.735 326.341 417.385C325.274 415.035 321.189 368.554 321.189 368.554C321.189 368.554 320.071 347.253 318.859 327.454C318.789 326.305 317.961 324.917 317.897 323.785C317.821 322.47 318.346 320.764 318.276 319.489C318.2 318.027 317.536 316.997 317.472 315.598C316.976 304.782 316.901 296.26 317.786 294.963C320.461 291.048 322.868 287.919 322.868 287.919C322.868 287.919 361.094 278.782 370.72 290.525L370.72 304.623Z" fill="#2F2E41"/>
<path d="M336.34 192.617L345.557 192.114L352.503 195.816L371.818 302.613C371.818 302.613 352.073 311.524 339.836 308.11C327.599 304.697 314.713 304.889 314.713 304.889L324.103 202.858L331.678 196.031L336.34 192.617Z" fill="#E6E6E6"/>
<path d="M351.717 194.882L365.983 200.57C368.174 200.674 370.264 201.5 371.913 202.912C373.562 204.324 374.672 206.239 375.064 208.346L374.117 235.855L368.972 248.942L372.641 278.754L370.72 282.509L372.38 286.341C369.943 290.204 370.439 295.265 371.885 300.714H370.137L366.641 300.146C366.641 300.146 358.944 302.755 357.367 293.384C353.239 268.854 350.908 279.664 350.908 279.664L348.876 203.557L351.717 194.882Z" fill="#3F3D56"/>
<path d="M332.261 194.893L318.934 208.535C316.743 208.639 314.653 209.464 313.004 210.876C311.355 212.288 310.245 214.204 309.853 216.311L315.362 258.613L312.777 274.845L314.197 278.526L313.168 282.686L314.78 286.491L313.614 291.611L315.362 299.007L324.103 296.732L324.036 290.666L326.367 208.171L332.261 194.893Z" fill="#3F3D56"/>
<path d="M287.816 265.018L269.662 277.88C268.966 277.915 268.293 278.129 267.708 278.499C267.124 278.869 266.65 279.383 266.334 279.989C266.018 280.595 265.872 281.271 265.908 281.95C265.945 282.629 266.165 283.287 266.545 283.857C266.925 284.426 267.451 284.888 268.072 285.196C268.693 285.504 269.386 285.647 270.082 285.61C270.777 285.573 271.45 285.358 272.034 284.986C272.617 284.615 273.089 284.1 273.404 283.493L298.09 270.626L287.816 265.018Z" fill="#FFB6B6"/>
<path d="M313.031 210.824C309.581 212.377 301.057 252.157 298.556 253.001C296.054 253.844 297.009 253.717 296.658 254.421C296.307 255.126 296.223 258.278 293.821 258.648C291.419 259.018 278.731 270.313 278.731 270.313L281.947 280.78C281.947 280.78 306.364 267.161 313.096 259.619C319.829 252.077 323.453 213.292 323.453 213.292L324.142 209.422C324.142 209.422 316.482 209.27 313.031 210.824Z" fill="#3F3D56"/>
<path d="M367.784 259.766L351.606 274.934C350.922 275.062 350.284 275.363 349.758 275.808C349.231 276.253 348.834 276.826 348.605 277.468C348.377 278.111 348.327 278.8 348.459 279.468C348.59 280.136 348.9 280.758 349.356 281.271C349.813 281.785 350.399 282.172 351.058 282.394C351.716 282.616 352.422 282.665 353.106 282.535C353.79 282.406 354.426 282.102 354.952 281.656C355.478 281.21 355.874 280.637 356.1 279.994L378.748 263.947L367.784 259.766Z" fill="#FFB6B6"/>
<path d="M370.137 214.237C366.937 216.238 379.097 245.255 376.737 246.425C374.377 247.595 375.306 247.342 375.057 248.086C374.808 248.831 375.166 251.965 372.839 252.653C370.512 253.341 359.528 266.225 359.528 266.225L364.182 276.164C364.182 276.164 386.458 259.408 392.069 251.037C397.68 242.666 394.028 239.839 394.028 239.839C387.067 225.404 380.557 201.862 370.72 203.427C370.72 203.427 373.337 212.236 370.137 214.237Z" fill="#3F3D56"/>
<path d="M338.317 190.365C346.944 190.365 353.937 183.537 353.937 175.114C353.937 166.691 346.944 159.863 338.317 159.863C329.69 159.863 322.696 166.691 322.696 175.114C322.696 183.537 329.69 190.365 338.317 190.365Z" fill="#FFB6B6"/>
<path d="M354.135 184.941C354.135 184.941 350.694 185.862 348.692 186.375C348.796 184.92 349.441 183.559 349.768 182.136C350.096 180.713 350.025 179.039 348.942 178.034C347.859 177.03 345.603 177.421 345.428 178.867C344.512 176.954 343.594 175.037 342.674 173.117C340.05 178.39 334.687 173.897 328.839 175.229C325.855 175.915 322.116 175.62 320.54 173.054C321.426 172.328 322.172 171.454 322.744 170.472C321.835 170.733 320.889 170.85 319.942 170.819C319.964 169.901 320.211 169.001 320.663 168.196C321.115 167.39 321.758 166.703 322.539 166.191C323.38 165.654 321.298 163.743 322.032 163.071C323.538 161.698 324.548 162.63 325.438 160.821C326.011 159.702 326.895 158.763 327.988 158.111C329.081 157.458 330.34 157.118 331.622 157.13C334.178 157.188 338.758 157.164 339.75 159.463C342.911 157.443 347.311 158.014 350.401 160.133C352.969 161.888 355.892 167.192 356.537 170.186C357.182 173.18 355.76 182.332 354.135 184.941Z" fill="#2F2E41"/>
<path d="M151.162 144.431H149.997V100.599H234.29V101.736H151.162V144.431Z" fill="#CCCCCC"/>
<path d="M237.893 107.499C241.738 107.499 244.854 104.456 244.854 100.703C244.854 96.9491 241.738 93.9062 237.893 93.9062C234.049 93.9062 230.932 96.9491 230.932 100.703C230.932 104.456 234.049 107.499 237.893 107.499Z" fill="#CCCCCC"/>
<path d="M23.9749 179.753C27.8194 179.753 30.9359 176.711 30.9359 172.957C30.9359 169.203 27.8194 166.161 23.9749 166.161C20.1305 166.161 17.0139 169.203 17.0139 172.957C17.0139 176.711 20.1305 179.753 23.9749 179.753Z" fill="#CCCCCC"/>
<path d="M424.653 433.825L266.302 434C266.21 434 266.12 433.983 266.035 433.949C265.951 433.915 265.874 433.865 265.81 433.802C265.745 433.739 265.694 433.664 265.659 433.582C265.624 433.5 265.606 433.412 265.606 433.322C265.606 433.233 265.624 433.145 265.659 433.063C265.694 432.98 265.745 432.906 265.81 432.843C265.874 432.78 265.951 432.73 266.035 432.696C266.12 432.662 266.21 432.645 266.302 432.645L424.653 432.47C424.837 432.47 425.014 432.542 425.144 432.669C425.274 432.796 425.347 432.968 425.347 433.148C425.347 433.327 425.274 433.5 425.144 433.627C425.014 433.754 424.837 433.825 424.653 433.825Z" fill="#CACACA"/>
<path d="M360.86 194.895C360.497 194.339 359.926 193.943 359.269 193.791C358.612 193.638 357.919 193.742 357.339 194.08C358.196 192.918 357.55 190.932 356.208 190.129C354.687 189.219 352.765 189.37 350.991 189.551L336.448 191.034C334.772 191.205 333.048 191.389 331.556 192.154C330.063 192.92 328.835 194.413 328.921 196.057C327.782 195.649 326.564 195.488 325.354 195.585C324.159 195.769 322.98 196.622 322.852 197.797C322.648 199.682 324.942 200.771 326.81 201.288C330.279 202.248 333.749 203.207 337.218 204.167L336.148 204.39C342.975 204.973 349.848 204.002 356.226 201.554C357.687 200.992 359.167 200.318 360.191 199.154C361.214 197.99 361.661 196.215 360.86 194.895Z" fill="#E6E6E6"/>
<path d="M272.447 273.429C270.451 282.138 265.331 302.473 260.137 306.726C259.807 307.031 259.412 307.261 258.981 307.396C240.723 311.768 234.873 300.618 234.873 300.618C234.873 300.618 239.766 298.274 239.89 293.694L249.757 296.703L258.359 277.68L259.624 276.519L259.632 276.512L272.447 273.429Z" fill="#3F3D56"/>
<path d="M229.728 326.219L229.873 274.582C229.877 273.537 230.303 272.537 231.057 271.8C231.811 271.063 232.832 270.65 233.896 270.651L273.577 270.759C274.641 270.764 275.659 271.182 276.409 271.923C277.159 272.664 277.579 273.667 277.577 274.712L277.432 326.349C277.427 327.394 277.002 328.395 276.248 329.132C275.493 329.869 274.473 330.282 273.409 330.28L233.728 330.172C232.664 330.168 231.646 329.75 230.896 329.009C230.146 328.268 229.726 327.265 229.728 326.219V326.219Z" fill="#E6E6E6"/>
<path d="M232.816 310.631L232.909 277.435C232.913 276.456 233.312 275.518 234.018 274.828C234.724 274.138 235.68 273.751 236.676 273.753L270.779 273.846C271.775 273.85 272.729 274.242 273.431 274.936C274.134 275.63 274.527 276.569 274.526 277.548L274.396 323.498C274.392 324.477 273.993 325.414 273.287 326.104C272.581 326.794 271.625 327.181 270.629 327.179L249.503 327.122C245.066 327.105 240.818 325.359 237.689 322.268C234.561 319.176 232.808 314.991 232.816 310.631V310.631Z" fill="white"/>
<path d="M266.871 288.335H240.28C239.857 288.335 239.451 288.17 239.152 287.875C238.853 287.581 238.684 287.183 238.684 286.767C238.684 286.351 238.853 285.952 239.152 285.658C239.451 285.364 239.857 285.199 240.28 285.199H266.871C267.295 285.199 267.7 285.364 268 285.658C268.299 285.952 268.467 286.351 268.467 286.767C268.467 287.183 268.299 287.581 268 287.875C267.7 288.17 267.295 288.335 266.871 288.335V288.335Z" fill="black"/>
<path d="M246.13 281.105H240.28C239.857 281.105 239.451 280.94 239.152 280.645C238.853 280.351 238.684 279.953 238.684 279.537C238.684 279.121 238.853 278.722 239.152 278.428C239.451 278.134 239.857 277.969 240.28 277.969H246.13C246.553 277.969 246.959 278.134 247.258 278.428C247.557 278.722 247.726 279.121 247.726 279.537C247.726 279.953 247.557 280.351 247.258 280.645C246.959 280.94 246.553 281.105 246.13 281.105Z" fill="black"/>
<path d="M266.871 295.565H240.28C239.857 295.565 239.451 295.4 239.152 295.106C238.853 294.812 238.684 294.413 238.684 293.997C238.684 293.581 238.853 293.183 239.152 292.888C239.451 292.594 239.857 292.429 240.28 292.429H266.871C267.295 292.429 267.7 292.594 268 292.888C268.299 293.183 268.467 293.581 268.467 293.997C268.467 294.413 268.299 294.812 268 295.106C267.7 295.4 267.295 295.565 266.871 295.565Z" fill="black"/>
<path d="M266.871 302.795H240.28C239.857 302.795 239.451 302.63 239.152 302.336C238.853 302.042 238.684 301.643 238.684 301.227C238.684 300.811 238.853 300.412 239.152 300.118C239.451 299.824 239.857 299.659 240.28 299.659H266.871C267.295 299.659 267.7 299.824 268 300.118C268.299 300.412 268.467 300.811 268.467 301.227C268.467 301.643 268.299 302.042 268 302.336C267.7 302.63 267.295 302.795 266.871 302.795V302.795Z" fill="black"/>
<path d="M264.72 321.846C268.226 321.846 271.068 319.053 271.068 315.607C271.068 312.161 268.226 309.368 264.72 309.368C261.214 309.368 258.371 312.161 258.371 315.607C258.371 319.053 261.214 321.846 264.72 321.846Z" fill="black"/>
<path d="M263.854 318.855C263.744 318.855 263.636 318.829 263.538 318.781C263.44 318.733 263.355 318.663 263.289 318.577L261.557 316.307C261.501 316.234 261.461 316.151 261.438 316.063C261.414 315.975 261.409 315.883 261.422 315.793C261.435 315.702 261.466 315.615 261.514 315.537C261.561 315.458 261.624 315.39 261.698 315.335C261.772 315.28 261.857 315.241 261.946 315.218C262.036 315.195 262.13 315.19 262.222 315.203C262.314 315.216 262.402 315.247 262.482 315.294C262.562 315.34 262.631 315.402 262.687 315.475L263.82 316.959L266.73 312.669C266.782 312.593 266.848 312.528 266.925 312.477C267.002 312.426 267.088 312.39 267.179 312.372C267.271 312.354 267.364 312.354 267.456 312.371C267.547 312.389 267.633 312.424 267.711 312.475C267.788 312.526 267.854 312.591 267.906 312.667C267.958 312.743 267.994 312.828 268.012 312.917C268.03 313.007 268.03 313.099 268.012 313.189C267.993 313.278 267.957 313.363 267.905 313.439L264.442 318.545C264.379 318.638 264.295 318.714 264.196 318.768C264.097 318.822 263.986 318.851 263.874 318.854C263.867 318.854 263.86 318.855 263.854 318.855Z" fill="white"/>
<path d="M291.549 429.837C291.106 430.292 290.646 430.741 290.18 431.191H237.025C236.588 430.753 236.157 430.303 235.726 429.837C235.708 429.82 235.691 429.797 235.673 429.78C229.898 423.533 226.262 414.453 223.996 404.878C223.85 404.298 223.722 403.712 223.594 403.12C222.999 400.429 222.516 397.709 222.119 395.013C222.049 394.546 221.979 394.08 221.921 393.613C221.385 389.739 221.024 385.927 220.791 382.348C220.762 381.887 220.732 381.438 220.703 380.988C220.276 373.864 220.273 366.722 220.692 359.597C220.692 359.597 220.762 359.597 220.896 359.602C221.286 359.619 222.224 359.659 223.605 359.739C227.41 359.966 234.589 360.535 243.033 361.878C243.493 361.952 243.96 362.032 244.426 362.111C251.567 363.263 258.612 364.929 265.502 367.095C265.934 367.237 266.359 367.38 266.79 367.522L266.796 367.55L272.081 393.442L274.272 370.395C276.014 371.163 277.71 371.982 279.336 372.858C279.79 373.103 280.233 373.348 280.67 373.598C284.387 375.654 287.761 378.252 290.675 381.301C308.011 400.059 304.299 416.825 291.549 429.837Z" fill="#F2F2F2"/>
</g>
<g clip-path="url(#clip1_125_61)">
<path d="M259.464 357.82C259.3 358.22 259.124 358.62 258.941 359.014C257.555 362.056 255.781 364.901 253.666 367.477C253.356 367.846 253.041 368.222 252.713 368.591C251.827 369.582 250.883 370.54 249.884 371.465C245.793 375.22 240.946 378.026 235.678 379.688C235.508 379.744 235.344 379.799 235.174 379.849C235.204 380.335 235.235 380.815 235.265 381.313C235.435 381.264 235.599 381.215 235.769 381.16C241.359 379.451 246.503 376.503 250.831 372.53C251.889 371.561 252.896 370.536 253.848 369.459C254.176 369.096 254.492 368.72 254.795 368.345C257.057 365.589 258.94 362.535 260.392 359.266C260.563 358.872 260.732 358.478 260.896 358.078C260.411 357.992 259.931 357.906 259.464 357.82Z" fill="white"/>
<path d="M282.6 363.569C282.527 363.932 282.442 364.295 282.351 364.658C280.705 371.577 277.2 377.899 272.225 382.92C271.878 383.271 271.526 383.616 271.162 383.948C271.059 384.053 270.943 384.163 270.834 384.262C266.309 388.404 260.872 391.39 254.977 392.97C249.082 394.55 242.901 394.679 236.947 393.347C236.807 393.322 236.662 393.285 236.522 393.254C236.595 393.759 236.662 394.27 236.74 394.775C236.88 394.805 237.014 394.836 237.153 394.861C243.258 396.141 249.575 395.945 255.591 394.289C261.607 392.633 267.154 389.562 271.781 385.327C271.927 385.191 272.079 385.062 272.218 384.92C272.583 384.576 272.935 384.231 273.287 383.886C278.378 378.721 281.979 372.242 283.698 365.151C283.789 364.781 283.874 364.412 283.953 364.043C283.504 363.883 283.055 363.723 282.6 363.569Z" fill="white"/>
<path d="M174.031 101.913H67.3146C66.4265 101.912 65.5751 101.554 64.9471 100.917C64.3192 100.28 63.966 99.4172 63.965 98.5168V16.3632C63.9659 15.4627 64.3191 14.5995 64.9471 13.9628C65.5751 13.3261 66.4265 12.9679 67.3146 12.9668H198.304C199.192 12.9679 200.044 13.3261 200.672 13.9628C201.3 14.5995 201.653 15.4627 201.654 16.3632V73.9077C201.645 81.3325 198.733 88.4509 193.554 93.7011C188.376 98.9512 181.355 101.904 174.031 101.913Z" fill="white"/>
<path d="M174.031 102.221H67.3147C66.3461 102.22 65.4176 101.829 64.7328 101.135C64.0479 100.44 63.6626 99.4988 63.6615 98.5169V16.3633C63.6626 15.3813 64.0478 14.4398 64.7327 13.7454C65.4175 13.051 66.3461 12.6604 67.3147 12.6592H198.304C199.273 12.6603 200.201 13.0509 200.886 13.7453C201.571 14.4398 201.956 15.3813 201.957 16.3633V73.9078C201.949 81.4142 199.004 88.6108 193.769 93.9186C188.533 99.2265 181.435 102.212 174.031 102.221V102.221ZM67.3147 13.8902C66.668 13.891 66.048 14.1518 65.5908 14.6154C65.1336 15.0791 64.8764 15.7076 64.8757 16.3633V98.5169C64.8764 99.1725 65.1336 99.801 65.5908 100.265C66.0481 100.728 66.668 100.989 67.3147 100.99H174.031C181.113 100.982 187.903 98.1257 192.911 93.0486C197.918 87.9716 200.735 81.0879 200.743 73.9078V16.3633C200.742 15.7076 200.485 15.0791 200.028 14.6154C199.571 14.1518 198.951 13.891 198.304 13.8902H67.3147Z" fill="#CCCCCC"/>
<path d="M172.411 40.7116H93.208C92.4808 40.7116 91.7835 40.4188 91.2693 39.8975C90.7552 39.3762 90.4663 38.6692 90.4663 37.932C90.4663 37.1948 90.7552 36.4878 91.2693 35.9665C91.7835 35.4452 92.4808 35.1523 93.208 35.1523H172.411C173.137 35.1534 173.834 35.4468 174.347 35.9679C174.86 36.4891 175.148 37.1955 175.148 37.932C175.148 38.6685 174.86 39.3749 174.347 39.896C173.834 40.4172 173.137 40.7105 172.411 40.7116V40.7116Z" fill="#CCCCCC"/>
<path d="M172.411 59.8605H93.208C92.4808 59.8605 91.7835 59.5677 91.2693 59.0464C90.7552 58.5251 90.4663 57.8181 90.4663 57.0809C90.4663 56.3437 90.7552 55.6367 91.2693 55.1154C91.7835 54.5941 92.4808 54.3013 93.208 54.3013H172.411C173.138 54.3013 173.835 54.5941 174.349 55.1154C174.864 55.6367 175.152 56.3437 175.152 57.0809C175.152 57.8181 174.864 58.5251 174.349 59.0464C173.835 59.5677 173.138 59.8605 172.411 59.8605Z" fill="#CCCCCC"/>
<path d="M172.411 79.5563H93.208C92.4808 79.5563 91.7835 79.2635 91.2693 78.7422C90.7552 78.2209 90.4663 77.5139 90.4663 76.7767C90.4663 76.0395 90.7552 75.3325 91.2693 74.8112C91.7835 74.2899 92.4808 73.9971 93.208 73.9971H172.411C173.138 73.9971 173.835 74.2899 174.349 74.8112C174.864 75.3325 175.152 76.0395 175.152 76.7767C175.152 77.5139 174.864 78.2209 174.349 78.7422C173.835 79.2635 173.138 79.5563 172.411 79.5563Z" fill="#CCCCCC"/>
<path d="M197.321 33.1981C206.363 33.1981 213.693 25.7665 213.693 16.5991C213.693 7.43165 206.363 0 197.321 0C188.279 0 180.948 7.43165 180.948 16.5991C180.948 25.7665 188.279 33.1981 197.321 33.1981Z" fill="black"/>
<path d="M195.087 25.2379C194.804 25.2379 194.526 25.1711 194.273 25.0429C194.02 24.9147 193.8 24.7285 193.63 24.4991L189.164 18.4611C189.02 18.2671 188.916 18.0464 188.857 17.8115C188.797 17.5766 188.784 17.3322 188.818 17.0921C188.852 16.8521 188.932 16.6212 189.054 16.4125C189.176 16.2039 189.337 16.0216 189.528 15.8762C189.719 15.7307 189.937 15.6248 190.169 15.5647C190.4 15.5045 190.642 15.4912 190.878 15.5255C191.115 15.5598 191.343 15.641 191.549 15.7646C191.754 15.8881 191.934 16.0515 192.078 16.2455L195 20.1955L202.505 8.7817C202.773 8.37424 203.19 8.09138 203.663 7.99534C204.137 7.8993 204.629 7.99795 205.031 8.26959C205.433 8.54123 205.712 8.96361 205.806 9.44381C205.901 9.92401 205.804 10.4227 205.536 10.8302L196.603 24.4156C196.441 24.6613 196.224 24.8641 195.969 25.0071C195.714 25.1501 195.429 25.229 195.138 25.2373C195.121 25.2376 195.104 25.2379 195.087 25.2379Z" fill="white"/>
<path d="M134.643 173.267H27.9259C20.6025 173.259 13.5815 170.306 8.40305 165.055C3.22465 159.805 0.31179 152.687 0.303528 145.262V87.7172C0.304571 86.8167 0.657846 85.9535 1.28585 85.3167C1.91386 84.68 2.76532 84.3219 3.65346 84.3208H134.643C135.531 84.3219 136.382 84.68 137.01 85.3167C137.638 85.9535 137.992 86.8167 137.993 87.7172V169.871C137.992 170.771 137.638 171.634 137.01 172.271C136.382 172.908 135.531 173.266 134.643 173.267V173.267Z" fill="white"/>
<path d="M134.643 173.575H27.9259C20.5221 173.566 13.4239 170.581 8.1886 165.273C2.9533 159.965 0.00841794 152.769 0 145.262V87.7173C0.00109744 86.7352 0.38637 85.7937 1.07129 85.0993C1.75621 84.4049 2.68485 84.0143 3.65347 84.0132H134.643C135.611 84.0143 136.54 84.4049 137.225 85.0993C137.91 85.7937 138.295 86.7352 138.296 87.7173V169.871C138.295 170.853 137.91 171.794 137.225 172.489C136.54 173.183 135.611 173.574 134.643 173.575ZM3.65347 85.2442C3.00677 85.245 2.38678 85.5058 1.92949 85.9694C1.4722 86.433 1.21495 87.0616 1.21417 87.7173V145.262C1.22217 152.442 4.039 159.326 9.04668 164.403C14.0544 169.48 20.844 172.336 27.9259 172.344H134.643C135.289 172.343 135.909 172.082 136.367 171.619C136.824 171.155 137.081 170.527 137.082 169.871V87.7173C137.081 87.0616 136.824 86.433 136.367 85.9694C135.909 85.5058 135.289 85.245 134.643 85.2442H3.65347Z" fill="#CCCCCC"/>
<path d="M108.749 112.066H29.5466C28.8194 112.066 28.1221 111.773 27.6079 111.251C27.0938 110.73 26.8049 110.023 26.8049 109.286C26.8049 108.549 27.0938 107.842 27.6079 107.32C28.1221 106.799 28.8194 106.506 29.5466 106.506H108.749C109.477 106.506 110.174 106.799 110.688 107.32C111.202 107.842 111.491 108.549 111.491 109.286C111.491 110.023 111.202 110.73 110.688 111.251C110.174 111.773 109.477 112.066 108.749 112.066Z" fill="#CCCCCC"/>
<path d="M108.749 131.214H29.5466C28.8194 131.214 28.1221 130.921 27.6079 130.4C27.0938 129.879 26.8049 129.172 26.8049 128.434C26.8049 127.697 27.0938 126.99 27.6079 126.469C28.1221 125.948 28.8194 125.655 29.5466 125.655H108.749C109.477 125.655 110.174 125.948 110.688 126.469C111.202 126.99 111.491 127.697 111.491 128.434C111.491 129.172 111.202 129.879 110.688 130.4C110.174 130.921 109.477 131.214 108.749 131.214Z" fill="#CCCCCC"/>
<path d="M108.749 150.91H29.5466C28.8194 150.91 28.1221 150.617 27.6079 150.096C27.0938 149.575 26.8049 148.868 26.8049 148.131C26.8049 147.394 27.0938 146.686 27.6079 146.165C28.1221 145.644 28.8194 145.351 29.5466 145.351H108.749C109.477 145.351 110.174 145.644 110.688 146.165C111.202 146.686 111.491 147.394 111.491 148.131C111.491 148.868 111.202 149.575 110.688 150.096C110.174 150.617 109.477 150.91 108.749 150.91Z" fill="#CCCCCC"/>
<path d="M134.791 105.211C143.833 105.211 151.163 97.7796 151.163 88.6122C151.163 79.4448 143.833 72.0132 134.791 72.0132C125.749 72.0132 118.419 79.4448 118.419 88.6122C118.419 97.7796 125.749 105.211 134.791 105.211Z" fill="black"/>
<path d="M132.557 97.2515C132.275 97.2515 131.996 97.1848 131.743 97.0565C131.49 96.9283 131.27 96.7422 131.101 96.5128L126.634 90.4747C126.491 90.2808 126.386 90.06 126.327 89.8251C126.268 89.5903 126.254 89.3458 126.288 89.1058C126.322 88.8658 126.402 88.6348 126.524 88.4262C126.646 88.2176 126.807 88.0353 126.998 87.8898C127.19 87.7444 127.407 87.6385 127.639 87.5783C127.871 87.5182 128.112 87.5049 128.349 87.5392C128.585 87.5735 128.813 87.6547 129.019 87.7782C129.225 87.9018 129.405 88.0652 129.548 88.2592L132.47 92.2091L139.975 80.7954C140.243 80.3879 140.66 80.105 141.134 80.009C141.607 79.913 142.099 80.0116 142.501 80.2833C142.903 80.5549 143.182 80.9773 143.277 81.4575C143.371 81.9377 143.274 82.4364 143.006 82.8438L134.073 96.4293C133.911 96.675 133.694 96.8778 133.439 97.0208C133.184 97.1637 132.899 97.2427 132.608 97.2509C132.591 97.2513 132.574 97.2515 132.557 97.2515Z" fill="white"/>
<path d="M267.609 249.843H118.288C110.965 249.835 103.944 246.882 98.7653 241.631C93.5869 236.381 90.674 229.263 90.6658 221.838V137.199C90.6671 136.038 91.1225 134.925 91.932 134.105C92.7415 133.284 93.839 132.822 94.9838 132.821H267.609C268.754 132.822 269.851 133.284 270.661 134.105C271.47 134.925 271.925 136.038 271.927 137.199V245.465C271.926 246.626 271.47 247.738 270.661 248.559C269.851 249.38 268.754 249.842 267.609 249.843V249.843Z" fill="white"/>
<path d="M267.609 250.151H118.288C110.884 250.143 103.786 247.157 98.5508 241.849C93.3155 236.541 90.3706 229.345 90.3622 221.838V137.199C90.3636 135.957 90.8509 134.766 91.7173 133.887C92.5838 133.009 93.7585 132.515 94.9838 132.513H267.609C268.834 132.515 270.009 133.009 270.875 133.887C271.742 134.766 272.229 135.957 272.23 137.199V245.465C272.229 246.707 271.742 247.898 270.875 248.777C270.009 249.655 268.834 250.15 267.609 250.151V250.151ZM94.9838 133.744C94.0804 133.745 93.2143 134.11 92.5755 134.757C91.9367 135.405 91.5774 136.283 91.5764 137.199V221.838C91.5844 229.018 94.4012 235.902 99.4089 240.979C104.417 246.056 111.206 248.912 118.288 248.92H267.609C268.512 248.919 269.378 248.555 270.017 247.907C270.656 247.259 271.015 246.381 271.016 245.465V137.199C271.015 136.283 270.656 135.405 270.017 134.757C269.378 134.11 268.512 133.745 267.609 133.744H94.9838Z" fill="#CCCCCC"/>
<path d="M233.485 169.286H129.107C128.632 169.287 128.162 169.193 127.723 169.009C127.284 168.825 126.885 168.555 126.549 168.215C126.213 167.875 125.947 167.471 125.765 167.026C125.583 166.581 125.49 166.105 125.49 165.623C125.49 165.142 125.583 164.665 125.765 164.22C125.947 163.775 126.213 163.371 126.549 163.031C126.885 162.691 127.284 162.421 127.723 162.237C128.162 162.054 128.632 161.959 129.107 161.96H233.485C233.96 161.959 234.43 162.054 234.869 162.237C235.308 162.421 235.707 162.691 236.043 163.031C236.379 163.371 236.646 163.775 236.828 164.22C237.009 164.665 237.103 165.142 237.103 165.623C237.103 166.105 237.009 166.581 236.828 167.026C236.646 167.471 236.379 167.875 236.043 168.215C235.707 168.555 235.308 168.825 234.869 169.009C234.43 169.193 233.96 169.287 233.485 169.286Z" fill="#CCCCCC"/>
<path d="M233.485 194.522H129.107C128.632 194.522 128.162 194.428 127.723 194.244C127.284 194.06 126.885 193.791 126.549 193.45C126.213 193.11 125.947 192.706 125.765 192.261C125.583 191.817 125.49 191.34 125.49 190.858C125.49 190.377 125.583 189.9 125.765 189.456C125.947 189.011 126.213 188.607 126.549 188.267C126.885 187.926 127.284 187.657 127.723 187.473C128.162 187.289 128.632 187.195 129.107 187.195H233.485C234.444 187.195 235.363 187.581 236.04 188.268C236.718 188.955 237.098 189.887 237.098 190.858C237.098 191.83 236.718 192.762 236.04 193.449C235.363 194.136 234.444 194.522 233.485 194.522Z" fill="#CCCCCC"/>
<path d="M233.485 220.478H129.107C128.149 220.478 127.23 220.092 126.553 219.405C125.875 218.718 125.494 217.786 125.494 216.815C125.494 215.843 125.875 214.911 126.553 214.224C127.23 213.537 128.149 213.151 129.107 213.151H233.485C233.96 213.151 234.431 213.245 234.869 213.429C235.308 213.613 235.707 213.882 236.043 214.223C236.379 214.563 236.646 214.967 236.828 215.412C237.009 215.856 237.103 216.333 237.103 216.815C237.103 217.296 237.009 217.773 236.828 218.217C236.646 218.662 236.379 219.066 236.043 219.406C235.707 219.747 235.308 220.016 234.869 220.2C234.431 220.384 233.96 220.478 233.485 220.478Z" fill="#CCCCCC"/>
<path d="M268.151 160.459C279.597 160.459 288.876 151.051 288.876 139.446C288.876 127.842 279.597 118.434 268.151 118.434C256.705 118.434 247.426 127.842 247.426 139.446C247.426 151.051 256.705 160.459 268.151 160.459Z" fill="black"/>
<path d="M265.324 150.383C264.966 150.383 264.613 150.298 264.293 150.136C263.973 149.973 263.694 149.738 263.48 149.447L257.826 141.804C257.644 141.558 257.512 141.279 257.437 140.982C257.362 140.684 257.345 140.375 257.388 140.071C257.431 139.767 257.532 139.475 257.686 139.211C257.841 138.947 258.045 138.716 258.287 138.532C258.529 138.348 258.805 138.214 259.098 138.137C259.391 138.061 259.696 138.044 259.996 138.088C260.296 138.131 260.584 138.234 260.845 138.391C261.105 138.547 261.333 138.754 261.514 138.999L265.213 144L274.714 129.551C275.054 129.036 275.581 128.679 276.18 128.558C276.779 128.437 277.401 128.562 277.91 128.905C278.418 129.249 278.771 129.783 278.891 130.39C279.011 130.998 278.889 131.628 278.551 132.144L267.242 149.342C267.038 149.653 266.763 149.909 266.44 150.09C266.117 150.271 265.757 150.371 265.388 150.382C265.367 150.382 265.345 150.383 265.324 150.383Z" fill="white"/>
<path d="M441 433.268C441 433.364 440.982 433.459 440.946 433.548C440.909 433.637 440.856 433.718 440.789 433.786C440.722 433.854 440.642 433.908 440.554 433.945C440.467 433.982 440.372 434 440.278 434H97.7058C97.5142 434 97.3305 433.923 97.195 433.786C97.0595 433.648 96.9834 433.462 96.9834 433.268C96.9834 433.073 97.0595 432.887 97.195 432.75C97.3305 432.612 97.5142 432.535 97.7058 432.535H440.278C440.372 432.535 440.467 432.554 440.554 432.59C440.642 432.627 440.722 432.681 440.789 432.749C440.856 432.817 440.909 432.898 440.946 432.987C440.982 433.076 441 433.171 441 433.268V433.268Z" fill="#CACACA"/>
</g>
<defs>
<clipPath id="clip0_125_61">
<rect width="408.333" height="340.094" fill="white" transform="translate(17.0139 93.9062)"/>
</clipPath>
<clipPath id="clip1_125_61">
<rect width="441" height="434" fill="white"/>
</clipPath>
</defs>
</svg>
