<svg width="20" height="19" viewBox="0 0 20 19" fill="none" xmlns="http://www.w3.org/2000/svg">
<path d="M15.1348 3.15112H3.98285C3.34906 3.15112 2.74123 3.40012 2.29307 3.84332C1.84491 4.28653 1.59314 4.88765 1.59314 5.51445V13.3922C1.59314 14.019 1.84491 14.6201 2.29307 15.0633C2.74123 15.5065 3.34906 15.7555 3.98285 15.7555H15.1348C15.7686 15.7555 16.3764 15.5065 16.8246 15.0633C17.2727 14.6201 17.5245 14.019 17.5245 13.3922V5.51445C17.5245 4.88765 17.2727 4.28653 16.8246 3.84332C16.3764 3.40012 15.7686 3.15112 15.1348 3.15112ZM3.98285 4.72667H15.1348C15.3461 4.72667 15.5487 4.80967 15.6981 4.95741C15.8475 5.10514 15.9314 5.30552 15.9314 5.51445L9.55883 9.35879L3.18628 5.51445C3.18628 5.30552 3.2702 5.10514 3.41959 4.95741C3.56897 4.80967 3.77158 4.72667 3.98285 4.72667ZM15.9314 13.3922C15.9314 13.6011 15.8475 13.8015 15.6981 13.9492C15.5487 14.097 15.3461 14.18 15.1348 14.18H3.98285C3.77158 14.18 3.56897 14.097 3.41959 13.9492C3.2702 13.8015 3.18628 13.6011 3.18628 13.3922V7.31057L9.14461 10.9107C9.2657 10.9798 9.40307 11.0162 9.54289 11.0162C9.68272 11.0162 9.82009 10.9798 9.94118 10.9107L15.9314 7.31057V13.3922Z" fill="black"/>
</svg>
