<svg width="16" height="16" viewBox="0 0 16 16" fill="none" xmlns="http://www.w3.org/2000/svg">
<path d="M6.33291 13.0961C6.3329 13.0024 6.3126 12.9099 6.27345 12.825C6.23431 12.7402 6.17728 12.6652 6.1064 12.6053C6.03552 12.5453 5.95253 12.5019 5.86331 12.4782C5.77409 12.4545 5.68083 12.451 5.59012 12.4679C4.76688 12.6214 3.72746 12.6445 3.4511 11.856C3.21012 11.2454 2.81096 10.7124 2.29592 10.3135C2.25918 10.2932 2.22415 10.2698 2.19122 10.2436C2.14614 10.1228 2.06608 10.0188 1.96159 9.94518C1.85711 9.87158 1.73311 9.83187 1.60595 9.8313H1.60288C1.4366 9.83124 1.27708 9.89809 1.15922 10.0172C1.04136 10.1363 0.974761 10.298 0.974008 10.4669C0.971549 10.9878 1.48402 11.3215 1.69193 11.4344C1.93709 11.6846 2.13412 11.979 2.27289 12.3027C2.50197 12.9564 3.16768 13.9482 5.08131 13.8203C5.08194 13.8428 5.08254 13.864 5.08285 13.8833L5.08561 14.0542C5.08561 14.2236 5.15187 14.3861 5.2698 14.5059C5.38774 14.6257 5.54769 14.6929 5.71448 14.6929C5.88127 14.6929 6.04122 14.6257 6.15916 14.5059C6.27709 14.3861 6.34335 14.2236 6.34335 14.0542L6.34028 13.8509C6.33721 13.7298 6.33291 13.5545 6.33291 13.0961ZM13.0411 3.43454C13.061 3.3547 13.0807 3.26613 13.0979 3.16632C13.1996 2.45451 13.1109 1.72801 12.8412 1.06297C12.8071 0.976267 12.7548 0.898177 12.6879 0.834173C12.6211 0.770169 12.5412 0.721799 12.454 0.692455C12.2301 0.61573 11.4035 0.464777 9.82272 1.49088C8.50872 1.17681 7.14088 1.17681 5.82688 1.49088C4.25255 0.479807 3.43022 0.617007 3.20852 0.689363C3.11914 0.717519 3.03709 0.765633 2.96839 0.830178C2.89969 0.894723 2.84608 0.974064 2.81148 1.06239C2.53623 1.7402 2.44853 2.48151 2.55785 3.20627C2.57321 3.28798 2.58978 3.36346 2.60698 3.43269C2.08601 4.1375 1.80851 4.99719 1.81752 5.87848C1.81582 6.0751 1.82474 6.27167 1.84423 6.46731C2.05427 9.40712 3.94088 10.2897 5.25542 10.5929C5.22809 10.6727 5.20322 10.7582 5.18111 10.8486C5.14171 11.013 5.16807 11.1865 5.25444 11.3311C5.3408 11.4758 5.4801 11.5797 5.6418 11.6202C5.8035 11.6606 5.9744 11.6343 6.11702 11.547C6.25965 11.4596 6.36235 11.3184 6.40262 11.1543C6.44263 10.9415 6.54519 10.746 6.69679 10.5935C6.78845 10.512 6.85481 10.4052 6.88781 10.2861C6.9208 10.167 6.91901 10.0407 6.88264 9.9226C6.84626 9.80451 6.77689 9.6997 6.68294 9.62091C6.589 9.54213 6.47454 9.49278 6.35349 9.47885C4.18131 9.22685 3.2383 8.32801 3.09644 6.35005C3.08073 6.19338 3.07366 6.03595 3.07526 5.87848C3.06517 5.25038 3.26947 4.63811 3.65346 4.14566C3.69204 4.09432 3.73314 4.04498 3.77659 3.99783C3.85359 3.91032 3.90535 3.80296 3.92621 3.68753C3.94706 3.5721 3.9362 3.45307 3.89482 3.3435C3.85239 3.22822 3.81973 3.10949 3.79717 2.98857C3.74594 2.64475 3.76275 2.294 3.8466 1.95686C4.39318 2.11365 4.90758 2.36887 5.36533 2.71036C5.44102 2.76157 5.52668 2.79565 5.61648 2.81029C5.70628 2.82493 5.79813 2.81978 5.8858 2.7952C7.15682 2.44485 8.49682 2.44507 9.76772 2.79584C9.85587 2.82039 9.94821 2.82525 10.0384 2.81006C10.1286 2.79488 10.2144 2.76002 10.29 2.70789C10.7456 2.36498 11.2579 2.10748 11.8026 1.94752C11.8861 2.27657 11.9048 2.61912 11.8576 2.95552C11.8348 3.08808 11.7992 3.21804 11.7514 3.34351C11.71 3.45308 11.6991 3.57212 11.72 3.68754C11.7408 3.80297 11.7926 3.91033 11.8696 3.99784C11.9181 4.05335 11.9666 4.11323 12.0102 4.16937C12.3915 4.65348 12.5923 5.25872 12.5774 5.87848C12.5785 6.0443 12.5706 6.21006 12.5537 6.37499C12.4153 8.32675 11.4686 9.22623 9.28627 9.47885C9.16518 9.49285 9.05071 9.54229 8.95678 9.62115C8.86285 9.70001 8.79349 9.80489 8.75716 9.92304C8.72082 10.0412 8.71907 10.1675 8.75211 10.2867C8.78515 10.4058 8.85157 10.5126 8.94328 10.5941C9.09963 10.7506 9.20242 10.954 9.23652 11.1742C9.27902 11.3452 9.29854 11.5213 9.29456 11.6976V13.1884C9.28841 13.6019 9.28841 13.912 9.28841 14.0542C9.28841 14.2236 9.35466 14.386 9.4726 14.5058C9.59053 14.6256 9.75049 14.6929 9.91728 14.6929C10.0841 14.6929 10.244 14.6256 10.362 14.5058C10.4799 14.386 10.5461 14.2236 10.5461 14.0542C10.5461 13.9157 10.5461 13.6119 10.5523 13.1984V11.6976C10.5574 11.4152 10.5246 11.1333 10.4549 10.8599C10.435 10.7701 10.4106 10.6814 10.3819 10.5942C11.3385 10.4327 12.2078 9.93175 12.8348 9.18038C13.4619 8.42901 13.8062 7.47601 13.8063 6.49102C13.827 6.28753 13.8366 6.08304 13.8351 5.87848C13.8491 4.99623 13.5693 4.13506 13.0411 3.43456L13.0411 3.43454Z" fill="black"/>
</svg>
