<svg xmlns="http://www.w3.org/2000/svg" width="31" height="30" fill="none" viewBox="0 0 31 30">
  <path fill="#000" d="M12.594 25.629a1.248 1.248 0 0 0-1.476-1.23c-1.637.3-3.703.346-4.252-1.197a7.135 7.135 0 0 0-2.296-3.019 1.494 1.494 0 0 1-.208-.137 1.25 1.25 0 0 0-1.164-.806h-.006a1.25 1.25 0 0 0-1.25 1.243c-.005 1.02 1.014 1.673 1.427 1.894.488.49.88 1.066 1.155 1.699.455 1.28 1.779 3.22 5.582 2.97l.003.123.006.335a1.25 1.25 0 0 0 2.5 0l-.006-.398c-.006-.237-.015-.58-.015-1.477ZM25.928 6.72c.04-.156.079-.33.113-.525a7.847 7.847 0 0 0-.51-4.116 1.252 1.252 0 0 0-.77-.725c-.445-.15-2.088-.446-5.23 1.562a17.337 17.337 0 0 0-7.943 0C8.46.94 6.824 1.207 6.384 1.35a1.247 1.247 0 0 0-.79.73 7.875 7.875 0 0 0-.504 4.195c.031.16.064.308.098.444a7.837 7.837 0 0 0-1.57 4.786c-.002.385.015.77.054 1.152.418 5.753 4.168 7.48 6.78 8.074a5.747 5.747 0 0 0-.147.5 1.25 1.25 0 0 0 2.428.599c.08-.417.283-.8.584-1.098a1.25 1.25 0 0 0-.682-2.181c-4.318-.493-6.192-2.252-6.474-6.123a8.258 8.258 0 0 1-.042-.923 5.322 5.322 0 0 1 1.394-3.68 1.25 1.25 0 0 0 .235-1.281 4.234 4.234 0 0 1-.194-.695 5.117 5.117 0 0 1 .098-2.019 9.429 9.429 0 0 1 3.019 1.475 1.26 1.26 0 0 0 1.034.166 14.721 14.721 0 0 1 7.717.001A1.257 1.257 0 0 0 20.46 5.3a9.465 9.465 0 0 1 3.006-1.488 5.05 5.05 0 0 1 .11 1.973 4 4 0 0 1-.212.759 1.25 1.25 0 0 0 .235 1.28 8.3 8.3 0 0 1 .28.336 5.152 5.152 0 0 1 1.127 3.345c.003.324-.013.649-.047.972-.275 3.82-2.157 5.58-6.494 6.074a1.25 1.25 0 0 0-.682 2.182c.31.307.515.705.583 1.136.084.334.123.679.115 1.024v2.917c-.012.81-.012 1.416-.012 1.695a1.25 1.25 0 1 0 2.5 0c0-.271 0-.866.012-1.675v-2.937a6.107 6.107 0 0 0-.194-1.64 5.322 5.322 0 0 0-.145-.52 8.14 8.14 0 0 0 6.807-8.03c.041-.398.06-.798.057-1.198a7.663 7.663 0 0 0-1.578-4.783Z"/>
</svg>
