<svg xmlns="http://www.w3.org/2000/svg" width="366" height="385" fill="none" viewBox="0 0 366 385">
  <path fill="#FFB6B6" d="m188.187 377.894-11.86-.001-5.641-37.842 17.503.001-.002 37.842Z"/>
  <path fill="#2F2E41" d="M147.556 377.672c-.369.514-.564 2.175-.564 2.773 0 1.839 1.802 3.33 4.025 3.33h36.726c1.517 0 2.746-1.017 2.746-2.272v-1.265s1.817-3.802-1.924-8.488c0 0-4.649 3.67-11.595-2.077l-2.049-3.07-14.828 8.971-8.22.837c-1.798.183-3.392-.028-4.317 1.261Z"/>
  <path fill="#FFB6B6" d="m297.696 358.533-10.101 5.14-28.773-29.786 14.908-7.587 23.966 32.233Z"/>
  <path fill="#2F2E41" d="M262.949 375.956c.011.598.897 2.097 1.276 2.606 1.165 1.567 3.644 2.056 5.537 1.092l31.281-15.92c1.292-.658 1.695-2.057.9-3.125l-.801-1.078s-.861-4.025-7.014-6.395c0 0-1.636 5.14-11.193 3.257l-3.689-1.727-6.948 14.069-6.47 4.276c-1.416.935-2.908 1.446-2.879 2.945Z"/>
  <path fill="#FFB6B6" d="M223.159 200.899c-.587-2.119-.543-4.175.008-5.879l-7.146-19.878 11.634-2.609 5.996 20.445c1.39 1.326 2.512 3.155 3.099 5.273 1.341 4.839-.615 9.355-4.368 10.086-3.753.731-7.882-2.599-9.223-7.438Z"/>
  <path fill="#000" d="M156.962 68.4s18.75-6.752 29.219 3.004c9.529 8.88 28.873 35.602 26.886 38.202l19.044 74.442-14.116 3.598-37.445-85.626-23.588-33.62Z"/>
  <path fill="#2F2E41" d="m136.313 178.721 9.661 93.237 23.345 86.578 24.956-1.998-12.075-94.57 7.391-84.044-53.278.797Z"/>
  <path fill="#2F2E41" d="m138.31 198.951 60.169 79.243 68.653 68.139 21.084-11.225-63.053-79.512c-9.651-35.025-20.338-67.446-39.923-77.524l-46.93 20.879Z"/>
  <path fill="#000" d="M141.822 199.339c-2.823 0-5.556-.823-7.784-2.385-2.99-2.098-4.547-5.157-4.274-8.391l5.249-41.661-2.005-45.493.013-.049 6.231-24.722a8.318 8.318 0 0 1 .582-2.416l9.204-22.893c1.656-4.118 6.291-6.885 11.537-6.885h8.139c4.075 0 7.858 1.675 10.117 4.48l7.125 8.841a9.617 9.617 0 0 1 1.188 1.875l15.729 32.842a8.585 8.585 0 0 1 .844 3.26l4.88 91.145c.163 3.026-1.309 5.922-4.036 7.945-2.711 2.012-6.328 2.901-9.915 2.443-20.54-2.624-38.517-.478-49.982 1.785-.947.187-1.9.279-2.842.279Z"/>
  <path fill="#3F3D56" d="m139.534 108.792-13.686-8.657s6.44-47.285 23.346-47.285c16.905 0 25.761-7.992 25.761-7.992s60.376 69.928 43.471 77.92c-16.906 7.992-40.251 3.996-40.251 3.996l-8.223-59.737c-1.01-3.158-6.264-3.5-7.859-.512l-22.56 42.267h.001Z"/>
  <path fill="#FFB8B8" d="M162.047 42.407c12.924 0 23.4-8.667 23.4-19.359 0-10.691-10.476-19.358-23.4-19.358-12.923 0-23.4 8.667-23.4 19.358 0 10.692 10.477 19.359 23.4 19.359Z"/>
  <path fill="#2F2E41" d="M180.578 37.683c-2.111.652-5.347 1.666-7.458 2.318-1.968-3.247.443-4.931.694-8.558.083-1.21.294-2.421.173-3.63-.121-1.207-.623-2.447-1.724-3.246-1.685-1.223-4.491-1.024-6.122.247-1.631 1.272-2.096 3.373-1.43 5.143-6.416-2.294-10.561-8.314-9.675-14.05-1.916-.621-3.88-1.25-5.937-1.298-2.058-.048-4.262.601-5.358 2.042-.769 1.01-.922 2.294-1.785 3.25-1.402 1.556-4.431 1.676-6.293.497-1.861-1.18-2.574-3.324-2.177-5.236.397-1.912-2.491-5.813-.874-7.218 1.103-.958 6.578.4 7.809-.446 1.123-.771 2.25-1.545 3.487-2.185a18.382 18.382 0 0 1 5.12-1.73c1.711-.313 3.47-.395 5.219-.477 1.776-.082 4.234-3.008 6.01-3.09 5.229-.243 9.903 2.37 14.92 3.614 5.018 1.243 8.174 4.815 10.951 8.489 3.957 5.233 2.612 10.967-.112 15.97-.674 1.238 1.586 2.538 1.251 3.866-.311 1.234-1.709 2.128-2.035 3.36-.28 1.053-1.932-.167-2.326.86-.34.887-1.343 1.513-2.414 1.796-1.071.284-2.218.278-3.343.27"/>
  <path fill="#3F3D56" d="m175.555 44.361.825.497 2.079 1.253c6.251 3.765 5.67 11.624-1.09 14.73l-8.452-11.169"/>
  <path fill="#CCC" d="M0 384.015c0 .546.53.985 1.19.985h363.29c.66 0 1.19-.439 1.19-.985s-.53-.984-1.19-.984H1.19c-.66 0-1.19.438-1.19.984Z"/>
  <path fill="#FFB6B6" d="M57.543 67.4c2.11 1.152 3.73 2.603 4.717 4.084l20.94 9.924-6 8.105-20.596-10.94c-2.032-.167-4.282-.83-6.393-1.982-4.82-2.632-7.087-6.823-5.063-9.36 2.025-2.539 7.574-2.462 12.395.17Z"/>
  <path fill="#000" d="M156.07 56.939c13.354-6.776 26.773 8.74 14.9 17.194l-.041.029-47.443 36.914-56.777-23.195 5.614-12.524 43.989 14.416 32.998-28.34c2.296-1.902 4.556-3.377 6.76-4.494Z"/>
</svg>
