<svg width="15" height="15" viewBox="0 0 15 15" fill="none" xmlns="http://www.w3.org/2000/svg">
<path d="M4.69613 7.40934C4.69613 6.04538 5.74699 4.93936 7.04363 4.93936C8.34027 4.93936 9.39169 6.04538 9.39169 7.40934C9.39169 8.77331 8.34027 9.87932 7.04363 9.87932C5.74699 9.87932 4.69613 8.77331 4.69613 7.40934ZM3.4268 7.40934C3.4268 9.51065 5.04604 11.214 7.04363 11.214C9.04122 11.214 10.6605 9.51065 10.6605 7.40934C10.6605 5.30803 9.04122 3.60472 7.04363 3.60472C5.04604 3.60472 3.4268 5.30803 3.4268 7.40934ZM9.95837 3.4539C9.95837 3.94467 10.3367 4.34326 10.8038 4.34326C11.2704 4.34326 11.6493 3.94467 11.6493 3.4539C11.6493 2.96314 11.2709 2.56514 10.8038 2.56514C10.3367 2.56514 9.95837 2.96314 9.95837 3.4539ZM4.19773 13.4404C3.511 13.4074 3.13777 13.2871 2.88971 13.1854C2.56085 13.0507 2.32645 12.8903 2.07952 12.6312C1.83316 12.372 1.68012 12.1255 1.55267 11.7795C1.45595 11.5186 1.34159 11.126 1.3103 10.4036C1.27616 9.62257 1.26933 9.38796 1.26933 7.40934C1.26933 5.43072 1.27673 5.19671 1.3103 4.41508C1.34159 3.6927 1.45652 3.30069 1.55267 3.03915C1.68068 2.69322 1.83316 2.44664 2.07952 2.18689C2.32588 1.92775 2.56028 1.76675 2.88971 1.63269C3.13777 1.53094 3.511 1.41065 4.19773 1.37773C4.94021 1.34182 5.16324 1.33464 7.04363 1.33464C8.92458 1.33464 9.14705 1.34242 9.8901 1.37773C10.5768 1.41065 10.9495 1.53154 11.1981 1.63269C11.527 1.76675 11.7614 1.92775 12.0083 2.18689C12.2547 2.44604 12.4071 2.69322 12.5352 3.03915C12.6319 3.30009 12.7462 3.6927 12.7775 4.41508C12.8117 5.19671 12.8185 5.43072 12.8185 7.40934C12.8185 9.38736 12.8117 9.62197 12.7775 10.4036C12.7462 11.126 12.6313 11.5186 12.5352 11.7795C12.4071 12.1255 12.2547 12.372 12.0083 12.6312C11.7619 12.8903 11.527 13.0507 11.1981 13.1854C10.9501 13.2871 10.5768 13.4074 9.8901 13.4404C9.14761 13.4763 8.92458 13.4834 7.04363 13.4834C5.16324 13.4834 4.94021 13.4763 4.19773 13.4404V13.4404ZM4.1397 0.044887C3.38982 0.0807965 2.87776 0.205882 2.42999 0.38902C1.96687 0.578144 1.57429 0.831905 1.18228 1.24367C0.790844 1.65543 0.549608 2.06839 0.369819 2.55616C0.19572 3.02718 0.0768086 3.56582 0.0426714 4.35463C0.00796533 5.14464 0 5.39721 0 7.40934C0 9.42147 0.00796533 9.67404 0.0426714 10.464C0.0768086 11.2529 0.19572 11.7915 0.369819 12.2625C0.549608 12.7497 0.790275 13.1633 1.18228 13.575C1.57372 13.9868 1.9663 14.2399 2.42999 14.4297C2.87833 14.6128 3.38982 14.7379 4.1397 14.7738C4.89128 14.8097 5.13081 14.8187 7.04363 14.8187C8.95701 14.8187 9.19654 14.8103 9.94756 14.7738C10.6974 14.7379 11.2095 14.6128 11.6573 14.4297C12.1204 14.2399 12.513 13.9868 12.905 13.575C13.2964 13.1633 13.5371 12.7497 13.7174 12.2625C13.8915 11.7915 14.011 11.2529 14.0446 10.464C14.0787 9.67344 14.0867 9.42147 14.0867 7.40934C14.0867 5.39721 14.0787 5.14464 14.0446 4.35463C14.0104 3.56582 13.8915 3.02718 13.7174 2.55616C13.5371 2.06899 13.2964 1.65603 12.905 1.24367C12.5135 0.831905 12.1204 0.578144 11.6578 0.38902C11.2095 0.205882 10.6974 0.080198 9.94813 0.044887C9.19711 0.00897739 8.95701 0 7.0442 0C5.13081 0 4.89128 0.0083789 4.1397 0.044887" fill="black"/>
</svg>
