<svg width="17" height="18" viewBox="0 0 17 18" fill="none" xmlns="http://www.w3.org/2000/svg">
<path d="M8.49645 0C3.81155 0 0 3.87358 0 8.63486C0 13.3963 3.81155 17.2697 8.49645 17.2697C13.1815 17.2697 16.9932 13.3963 16.9932 8.63486C16.993 3.87358 13.1813 0 8.49645 0V0ZM8.49645 16.4181C4.27357 16.4181 0.83801 12.9266 0.83801 8.63486C0.83801 4.34326 4.27357 0.851648 8.49645 0.851648C12.7193 0.851648 16.1552 4.34326 16.1552 8.63486C16.155 12.9266 12.7193 16.4181 8.49645 16.4181Z" fill="black"/>
<path d="M4.18091 6.80518H6.14716V12.0193H4.18091V6.80518Z" fill="black"/>
<path d="M5.14455 5.97341C5.69415 5.97341 6.13969 5.56034 6.13969 5.05079C6.13969 4.54124 5.69415 4.12817 5.14455 4.12817C4.59495 4.12817 4.14941 4.54124 4.14941 5.05079C4.14941 5.56034 4.59495 5.97341 5.14455 5.97341Z" fill="black"/>
<path d="M11.0896 6.6875C10.6869 6.6875 10.3457 6.76202 10.0653 6.91092C9.78509 7.05995 9.50826 7.30778 9.23437 7.65469V6.80531H7.40332V12.0194H9.36957V9.5154C9.36957 9.04075 9.44374 8.71201 9.59192 8.52862C9.74011 8.34538 9.93313 8.25368 10.1715 8.25368C10.3873 8.25368 10.5548 8.32167 10.6741 8.45751C10.7934 8.59335 10.8527 8.82485 10.8527 9.15231V12.0194H12.8287V8.70548C12.8287 8.01806 12.6748 7.50991 12.3671 7.18089C12.0599 6.85187 11.6337 6.6875 11.0896 6.6875V6.6875Z" fill="black"/>
</svg>
