<svg xmlns="http://www.w3.org/2000/svg" width="41" height="40" fill="none" viewBox="0 0 41 40">
  <path fill="#000" d="M20.006 3.102c-9.312 0-16.888 7.58-16.888 16.898s7.576 16.898 16.888 16.898c9.313 0 16.889-7.58 16.889-16.898S29.318 3.102 20.006 3.102Zm0 32.13c-8.394 0-15.223-6.833-15.223-15.232s6.83-15.232 15.223-15.232C28.4 4.768 35.23 11.601 35.23 20S28.4 35.232 20.006 35.232Z"/>
  <path fill="#000" d="M11.428 16.42h3.908v10.203h-3.908V16.42Zm1.916-1.628c1.092 0 1.978-.809 1.978-1.806s-.886-1.805-1.978-1.805c-1.093 0-1.978.808-1.978 1.805 0 .997.885 1.806 1.978 1.806Zm11.816 1.397c-.8 0-1.478.146-2.035.437-.557.292-1.108.777-1.652 1.456v-1.663h-3.64v10.204h3.909v-4.9c0-.929.147-1.572.442-1.931a1.42 1.42 0 0 1 1.152-.538c.429 0 .762.133.999.399s.355.719.355 1.36v5.61h3.928v-6.485c0-1.345-.306-2.34-.918-2.984-.61-.643-1.458-.965-2.54-.965Z"/>
</svg>
