<svg xmlns="http://www.w3.org/2000/svg" width="39" height="37" fill="none" viewBox="0 0 39 37">
  <path fill="#000" d="M30.09 6.167H7.922c-1.26 0-2.468.487-3.359 1.354a4.564 4.564 0 0 0-1.391 3.27v15.417c0 1.227.5 2.403 1.391 3.27a4.816 4.816 0 0 0 3.359 1.355h22.166c1.26 0 2.468-.487 3.36-1.354a4.564 4.564 0 0 0 1.39-3.27V10.791c0-1.227-.5-2.403-1.39-3.27a4.816 4.816 0 0 0-3.36-1.355ZM7.922 9.25h22.166c.42 0 .823.162 1.12.452.297.289.464.68.464 1.09l-12.667 7.523L6.34 10.792c0-.41.166-.801.463-1.09.297-.29.7-.452 1.12-.452Zm23.75 16.958c0 .41-.167.801-.464 1.09-.297.29-.7.452-1.12.452H7.924c-.42 0-.823-.162-1.12-.451a1.522 1.522 0 0 1-.463-1.09V14.306l11.843 7.045a1.616 1.616 0 0 0 1.583 0l11.907-7.045v11.901Z"/>
</svg>
