<svg xmlns="http://www.w3.org/2000/svg" fill="none" viewBox="0 -1 822 610.99">
<g id="undraw_scrum_board_re_wk7v (1) 2" clip-path="url(#clip0_25_245)">
<path id="Vector" d="M377.537 56.999H325.117C320.077 57.0036 315.245 59.0068 311.682 62.569C308.118 66.1311 306.114 70.9611 306.109 75.9987V132.808C305.439 132.768 304.769 132.708 304.109 132.628C291.69 131.322 279.883 126.574 270.019 118.919C260.155 111.264 252.627 101.008 248.283 89.305C243.939 77.6023 242.951 64.9193 245.433 52.6859C247.914 40.4525 253.764 29.1552 262.325 20.0677C270.886 10.9802 281.816 4.46399 293.883 1.2537C305.951 -1.95658 318.675 -1.73328 330.623 1.89847C342.57 5.53021 353.264 12.426 361.501 21.8082C369.737 31.1905 375.187 42.6861 377.237 54.9991C377.347 55.659 377.448 56.3291 377.537 56.999Z" fill="#F2F2F2"/>
<path id="Vector_2" d="M669.16 55.999H314.228C311.282 56.0051 308.459 58.2195 306.376 62.1564C304.294 66.0933 303.123 71.4311 303.119 76.9987V253.996V430.993C303.123 436.56 304.294 441.898 306.376 445.835C308.459 449.772 311.282 451.986 314.228 451.992H669.16C672.105 451.986 674.928 449.772 677.011 445.835C679.093 441.898 680.265 436.56 680.268 430.993V76.9987C680.265 71.4311 679.093 66.0933 677.011 62.1564C674.928 58.2195 672.105 56.0051 669.16 55.999ZM679.21 430.993C679.208 436.03 678.148 440.86 676.264 444.423C674.379 447.985 671.824 449.988 669.16 449.993H314.228C311.563 449.988 309.008 447.985 307.124 444.423C305.239 440.86 304.18 436.03 304.177 430.993V76.9987C304.18 71.961 305.239 67.131 307.124 63.5689C309.008 60.0068 311.563 58.0035 314.228 57.999H669.16C671.824 58.0035 674.379 60.0068 676.264 63.5689C678.148 67.131 679.208 71.961 679.21 76.9987V430.993Z" fill="#3F3D56"/>
<path id="Vector_3" d="M655.726 112.998H333.663C333.522 112.998 333.387 113.051 333.287 113.145C333.187 113.238 333.131 113.366 333.131 113.498C333.131 113.631 333.187 113.758 333.287 113.852C333.387 113.945 333.522 113.998 333.663 113.998H655.726C655.867 113.998 656.003 113.945 656.102 113.852C656.202 113.758 656.258 113.631 656.258 113.498C656.258 113.366 656.202 113.238 656.102 113.145C656.003 113.051 655.867 112.998 655.726 112.998Z" fill="#3F3D56"/>
<path id="Vector_4" d="M484.867 408.993C484.602 408.993 484.347 408.888 484.16 408.7C483.972 408.513 483.867 408.258 483.867 407.993V78.9986C483.867 78.7334 483.972 78.4791 484.16 78.2915C484.347 78.104 484.602 77.9987 484.867 77.9987C485.132 77.9987 485.387 78.104 485.574 78.2915C485.762 78.4791 485.867 78.7334 485.867 78.9986V407.993C485.867 408.258 485.762 408.513 485.574 408.7C485.387 408.888 485.132 408.993 484.867 408.993V408.993Z" fill="#3F3D56"/>
<path id="Vector_5" d="M406.752 242.583H370.198C369.004 242.582 367.86 242.107 367.016 241.264C366.172 240.42 365.697 239.276 365.696 238.083V194.965C365.697 193.771 366.172 192.628 367.016 191.784C367.86 190.94 369.004 190.466 370.198 190.465H406.752C407.946 190.466 409.09 190.94 409.934 191.784C410.778 192.628 411.253 193.771 411.254 194.965V238.083C411.253 239.276 410.778 240.42 409.934 241.264C409.09 242.107 407.946 242.582 406.752 242.583V242.583Z" fill="black"/>
<path id="Vector_6" d="M559.812 195.584H523.258C522.065 195.583 520.92 195.108 520.076 194.265C519.232 193.421 518.758 192.277 518.756 191.084V147.965C518.758 146.772 519.232 145.629 520.076 144.785C520.92 143.941 522.065 143.467 523.258 143.465H559.812C561.006 143.467 562.15 143.941 562.994 144.785C563.838 145.629 564.313 146.772 564.314 147.965V191.084C564.313 192.277 563.838 193.421 562.994 194.265C562.15 195.108 561.006 195.583 559.812 195.584V195.584Z" fill="black"/>
<path id="Vector_7" d="M612.833 268.583H576.279C575.086 268.582 573.941 268.107 573.097 267.263C572.253 266.42 571.779 265.276 571.777 264.083V220.964C571.779 219.771 572.253 218.627 573.097 217.784C573.941 216.94 575.086 216.466 576.279 216.464H612.833C614.027 216.466 615.171 216.94 616.015 217.784C616.859 218.627 617.334 219.771 617.335 220.964V264.083C617.334 265.276 616.859 266.42 616.015 267.264C615.171 268.107 614.027 268.582 612.833 268.583Z" fill="#FF6584"/>
<path id="Vector_8" d="M541.805 284.583H505.251C504.058 284.581 502.913 284.107 502.069 283.263C501.225 282.42 500.751 281.276 500.749 280.083V236.964C500.751 235.771 501.225 234.627 502.069 233.783C502.913 232.94 504.058 232.465 505.251 232.464H541.805C542.999 232.465 544.143 232.94 544.987 233.783C545.831 234.627 546.306 235.771 546.307 236.964V280.083C546.306 281.276 545.831 282.42 544.987 283.263C544.143 284.107 542.999 284.581 541.805 284.583V284.583Z" fill="#E6E6E6"/>
<path id="Vector_9" d="M388.745 352.582H352.191C350.997 352.58 349.853 352.106 349.009 351.262C348.165 350.419 347.69 349.275 347.689 348.082V304.963C347.69 303.77 348.165 302.626 349.009 301.782C349.853 300.939 350.997 300.464 352.191 300.463H388.745C389.939 300.464 391.083 300.939 391.927 301.782C392.771 302.626 393.246 303.77 393.247 304.963V348.082C393.246 349.275 392.771 350.419 391.927 351.262C391.083 352.106 389.939 352.58 388.745 352.582Z" fill="#E6E6E6"/>
<path id="Vector_10" d="M437.849 96.9984H380.826C379.765 96.9984 378.747 96.577 377.997 95.8269C377.246 95.0767 376.825 94.0593 376.825 92.9985C376.825 91.9376 377.246 90.9202 377.997 90.1701C378.747 89.42 379.765 88.9985 380.826 88.9985H437.849C438.91 88.9985 439.928 89.42 440.678 90.1701C441.429 90.9202 441.85 91.9376 441.85 92.9985C441.85 94.0593 441.429 95.0767 440.678 95.8269C439.928 96.577 438.91 96.9984 437.849 96.9984Z" fill="#CCCCCC"/>
<path id="Vector_11" d="M588.908 96.9984H531.886C530.825 96.9984 529.807 96.577 529.056 95.8269C528.306 95.0767 527.884 94.0593 527.884 92.9985C527.884 91.9376 528.306 90.9202 529.056 90.1701C529.807 89.42 530.825 88.9985 531.886 88.9985H588.908C589.97 88.9985 590.987 89.42 591.738 90.1701C592.488 90.9202 592.91 91.9376 592.91 92.9985C592.91 94.0593 592.488 95.0767 591.738 95.8269C590.987 96.577 589.97 96.9984 588.908 96.9984Z" fill="#CCCCCC"/>
<path id="Vector_12" d="M483.419 567.291H471.155L465.32 520.003L483.421 520.004L483.419 567.291Z" fill="#A0616A"/>
<path id="Vector_13" d="M462.394 563.788H486.047V578.674H447.501C447.501 576.719 447.887 574.784 448.635 572.977C449.384 571.171 450.481 569.53 451.863 568.148C453.246 566.765 454.888 565.669 456.695 564.921C458.502 564.173 460.438 563.788 462.394 563.788Z" fill="#2F2E41"/>
<path id="Vector_14" d="M572.409 553.404L561.254 558.497L536.29 517.909L552.756 510.391L572.409 553.404Z" fill="#A0616A"/>
<path id="Vector_15" d="M551.829 558.949L573.344 549.126L579.532 562.667L544.47 578.675C543.657 576.897 543.203 574.976 543.133 573.022C543.063 571.069 543.379 569.12 544.062 567.289C544.746 565.457 545.783 563.778 547.116 562.347C548.449 560.916 550.05 559.761 551.829 558.949V558.949Z" fill="#2F2E41"/>
<path id="Vector_16" d="M536.693 407.85C537.868 406.966 538.835 405.836 539.525 404.538C540.216 403.24 540.614 401.806 540.69 400.338C540.766 398.87 540.52 397.403 539.968 396.041C539.416 394.678 538.571 393.453 537.494 392.452L551.912 359.753L533.596 362.855L522.713 393.432C521.15 395.352 520.347 397.778 520.454 400.25C520.562 402.723 521.573 405.071 523.296 406.848C525.019 408.625 527.335 409.709 529.804 409.894C532.273 410.078 534.724 409.351 536.693 407.85Z" fill="#A0616A"/>
<path id="Vector_17" d="M482.638 554.822H470.921C469.785 554.818 468.692 554.387 467.86 553.613C467.027 552.84 466.517 551.781 466.431 550.649L460.042 380.093C459.994 379.439 460.09 378.783 460.323 378.17C460.555 377.558 460.919 377.003 461.388 376.546C461.857 376.088 462.421 375.738 463.039 375.521C463.658 375.304 464.316 375.224 464.969 375.288L532.73 382.481C533.829 382.589 534.849 383.096 535.598 383.905C536.348 384.715 536.773 385.772 536.794 386.875L538.214 462.109C538.222 462.517 538.301 462.921 538.448 463.302L566.244 535.354C566.459 535.91 566.561 536.504 566.544 537.101C566.527 537.697 566.392 538.284 566.146 538.828C565.899 539.371 565.548 539.86 565.111 540.267C564.674 540.673 564.16 540.988 563.6 541.195L551.727 545.567C550.696 545.947 549.561 545.937 548.537 545.538C547.513 545.139 546.67 544.38 546.168 543.403L512.022 477.035C511.836 476.675 511.699 476.29 511.617 475.893L505.784 447.8C505.615 446.985 505.161 446.257 504.504 445.747C503.846 445.237 503.029 444.977 502.197 445.015C501.366 445.052 500.575 445.385 499.967 445.952C499.358 446.52 498.972 447.286 498.877 448.112L487.11 550.834C486.985 551.932 486.46 552.945 485.635 553.681C484.81 554.416 483.743 554.823 482.638 554.822V554.822Z" fill="#2F2E41"/>
<path id="Vector_18" d="M488.472 246.735C502.042 246.735 513.043 235.739 513.043 222.174C513.043 208.61 502.042 197.614 488.472 197.614C474.902 197.614 463.901 208.61 463.901 222.174C463.901 235.739 474.902 246.735 488.472 246.735Z" fill="#FFB6B6"/>
<path id="Vector_19" d="M505.322 395.688C488.66 395.504 472.394 390.579 458.431 381.49L458.192 381.325L458.216 381.035L467.615 271.621C467.939 267.909 469.597 264.44 472.281 261.855C474.966 259.27 478.497 257.744 482.22 257.56C494.4 257 510.762 257.706 519.52 264.226C532.756 274.081 539.136 288.92 537.023 304.938C532.641 338.156 537.605 382.966 538.185 387.966L538.227 388.326L537.897 388.478C527.694 393.223 516.576 395.684 505.322 395.688V395.688Z" fill="black"/>
<path id="Vector_20" d="M538.072 388.151C537.379 388.15 536.694 388.005 536.061 387.726C535.427 387.447 534.858 387.039 534.39 386.529L529.015 380.668C528.434 380.031 528.027 379.255 527.833 378.416C527.639 377.576 527.664 376.7 527.905 375.873L540.161 334.41L521.514 295.267C520.643 293.435 520.43 291.359 520.91 289.388C521.333 287.658 522.271 286.096 523.6 284.91C524.929 283.724 526.586 282.968 528.353 282.742C530.121 282.516 531.915 282.831 533.5 283.646C535.084 284.46 536.385 285.736 537.229 287.304L562.534 328.345C563.562 330.01 564.165 331.902 564.291 333.854C564.416 335.807 564.06 337.76 563.254 339.543L542.636 385.207C542.297 385.962 541.774 386.621 541.117 387.123C540.459 387.626 539.686 387.957 538.869 388.087C538.605 388.13 538.339 388.151 538.072 388.151V388.151Z" fill="black"/>
<path id="Vector_21" d="M364.882 308.947C366.062 309.825 367.42 310.433 368.86 310.729C370.301 311.025 371.789 311.001 373.219 310.66C374.65 310.319 375.988 309.669 377.14 308.755C378.292 307.84 379.229 306.685 379.886 305.37L415.338 309.966L407.191 293.278L374.774 291.472C372.49 290.515 369.935 290.429 367.592 291.23C365.249 292.031 363.282 293.664 362.062 295.818C360.843 297.972 360.457 300.498 360.976 302.918C361.496 305.338 362.885 307.483 364.882 308.947V308.947Z" fill="#A0616A"/>
<path id="Vector_22" d="M443.024 318.062C442.406 318.062 441.79 318.019 441.178 317.934L385.405 310.202C384.494 310.077 383.628 309.727 382.886 309.184C382.143 308.641 381.548 307.921 381.153 307.091C381.025 306.823 380.919 306.546 380.835 306.262H380.835C380.619 305.523 380.559 304.748 380.658 303.986C380.757 303.223 381.013 302.489 381.41 301.83L386.025 294.181C386.522 293.364 387.22 292.687 388.053 292.217C388.886 291.747 389.826 291.498 390.783 291.495H390.791L439.406 291.551L475.714 259.034C477.403 257.525 479.56 256.643 481.823 256.535C483.811 256.443 485.779 256.955 487.469 258.004C489.159 259.053 490.491 260.589 491.29 262.41C492.088 264.231 492.316 266.251 491.943 268.204C491.57 270.157 490.613 271.952 489.199 273.35L452.97 313.628C451.716 315.023 450.182 316.139 448.469 316.903C446.755 317.667 444.9 318.062 443.024 318.062V318.062Z" fill="black"/>
<path id="Vector_23" d="M491.265 244.024C493.511 238.829 495.411 231.912 491.104 228.239C488.606 226.109 485.008 226.104 481.735 225.839C472.514 225.093 463.022 220.852 458.515 212.776C454.008 204.7 456.525 192.692 465.028 189.048C470.759 186.592 477.33 188.266 483.329 189.966L501.342 195.072C506.694 196.589 512.314 198.262 516.167 202.273C522.312 208.67 521.853 219.485 516.972 226.891C512.091 234.297 504.741 242.021 496.326 244.833L491.265 244.024Z" fill="#2F2E41"/>
<path id="Vector_24" d="M679.708 609.99H333.691C333.617 609.996 333.545 609.575 333.477 608.748C333.409 607.922 333.347 606.708 333.295 605.175C333.243 603.642 333.202 601.821 333.174 599.816C333.146 597.811 333.131 595.661 333.131 593.49C333.131 591.319 333.146 589.17 333.174 587.165C333.202 585.16 333.243 583.339 333.295 581.806C333.347 580.274 333.409 579.059 333.477 578.233C333.545 577.407 333.617 576.984 333.691 576.991H679.708C679.782 576.984 679.854 577.407 679.922 578.233C679.99 579.059 680.052 580.274 680.104 581.806C680.156 583.339 680.197 585.16 680.225 587.165C680.253 589.17 680.268 591.319 680.268 593.49C680.268 595.661 680.253 597.811 680.225 599.816C680.197 601.821 680.156 603.642 680.104 605.175C680.052 606.708 679.99 607.922 679.922 608.748C679.854 609.575 679.782 609.996 679.708 609.99Z" fill="#3F3D56"/>
<path id="Vector_25" d="M642.293 385.113H605.739C604.545 385.112 603.401 384.637 602.557 383.794C601.713 382.95 601.238 381.806 601.237 380.613V337.494C601.238 336.301 601.713 335.157 602.557 334.314C603.401 333.47 604.545 332.996 605.739 332.994H642.293C643.487 332.996 644.631 333.47 645.475 334.314C646.319 335.157 646.793 336.301 646.795 337.494V380.613C646.793 381.806 646.319 382.95 645.475 383.794C644.631 384.637 643.487 385.112 642.293 385.113V385.113Z" fill="#FF6584"/>
</g>
<defs>
<clipPath id="clip0_25_245">
<rect width="822" height="579" fill="white"/>
</clipPath>
</defs>
</svg>