<svg xmlns="http://www.w3.org/2000/svg" width="655" height="414" fill="none" viewBox="0 0 655 414">
  <path fill="#E6E6E6" d="M416.563 129.423a122.048 122.048 0 0 1 10.1-38.517 121.836 121.836 0 0 1 5.019-9.961.747.747 0 0 0-.28-.995.742.742 0 0 0-1.004.245 123.752 123.752 0 0 0-13.768 37.982 123.864 123.864 0 0 0-1.553 11.246c-.089.952 1.398.946 1.486 0Z"/>
  <path fill="#E6E6E6" d="M435.282 83.329a9.414 9.414 0 0 0 9.414-9.415 9.415 9.415 0 1 0-9.414 9.414Zm-17.756 46.344a79.145 79.145 0 0 1 6.553-24.988 78.733 78.733 0 0 1 3.255-6.462.483.483 0 0 0-.833-.487 80.273 80.273 0 0 0-8.931 24.641 79.861 79.861 0 0 0-1.008 7.296c-.058.618.907.614.964 0Z"/>
  <path fill="#E6E6E6" d="M429.67 99.77a6.107 6.107 0 1 0 0-12.215 6.107 6.107 0 0 0 0 12.214Zm-13.361 29.326a79.187 79.187 0 0 1-10.203-23.732 79.081 79.081 0 0 1-1.407-7.098.482.482 0 0 0-.956.128 80.245 80.245 0 0 0 8.113 24.923 80.793 80.793 0 0 0 3.692 6.372c.335.523 1.094-.074.761-.593Z"/>
  <path fill="#E6E6E6" d="M403.735 99.34a6.108 6.108 0 1 0 0-12.215 6.108 6.108 0 0 0 0 12.216Z"/>
  <path fill="#F2F2F2" d="M397.559 134.5v-12a4.504 4.504 0 0 1 4.5-4.5h28a4.508 4.508 0 0 1 3.181 1.319 4.508 4.508 0 0 1 1.319 3.181v12a4.504 4.504 0 0 1-4.5 4.5h-28a4.5 4.5 0 0 1-3.18-1.32 4.5 4.5 0 0 1-1.32-3.18Zm31.5-76.5h-12a4.503 4.503 0 0 1-4.5-4.5v-49a4.502 4.502 0 0 1 4.5-4.5h12a4.507 4.507 0 0 1 4.5 4.5v49a4.506 4.506 0 0 1-4.5 4.5Z"/>
  <path fill="#CCC" d="M433.059 9.5h-20v4h20v-4Zm0 31h-20v4h20v-4Z"/>
  <path fill="#F2F2F2" d="M459.059 58h-12a4.503 4.503 0 0 1-4.5-4.5v-49a4.502 4.502 0 0 1 4.5-4.5h12a4.507 4.507 0 0 1 4.5 4.5v49a4.506 4.506 0 0 1-4.5 4.5Z"/>
  <path fill="#CCC" d="M463.059 9.5h-20v4h20v-4Zm0 31h-20v4h20v-4Z"/>
  <path fill="#F2F2F2" d="M489.059 58h-12a4.503 4.503 0 0 1-4.5-4.5v-49a4.502 4.502 0 0 1 4.5-4.5h12a4.507 4.507 0 0 1 4.5 4.5v49a4.506 4.506 0 0 1-4.5 4.5Z"/>
  <path fill="#CCC" d="M493.059 9.5h-20v4h20v-4Zm0 31h-20v4h20v-4Z"/>
  <path fill="#F2F2F2" d="M505.059 139h-12a4.5 4.5 0 0 1-3.18-1.32 4.5 4.5 0 0 1-1.32-3.18v-49a4.502 4.502 0 0 1 4.5-4.5h12a4.507 4.507 0 0 1 4.5 4.5v49a4.504 4.504 0 0 1-4.5 4.5Z"/>
  <path fill="#CCC" d="M509.059 90.5h-20v4h20v-4Zm0 31h-20v4h20v-4Z"/>
  <path fill="#F2F2F2" d="M535.059 139h-12a4.5 4.5 0 0 1-3.18-1.32 4.5 4.5 0 0 1-1.32-3.18v-49a4.502 4.502 0 0 1 4.5-4.5h12a4.507 4.507 0 0 1 4.5 4.5v49a4.504 4.504 0 0 1-4.5 4.5Z"/>
  <path fill="#CCC" d="M539.059 90.5h-20v4h20v-4Zm0 31h-20v4h20v-4Z"/>
  <path fill="#F2F2F2" d="M565.059 139h-12a4.5 4.5 0 0 1-3.18-1.32 4.5 4.5 0 0 1-1.32-3.18v-49a4.502 4.502 0 0 1 4.5-4.5h12a4.507 4.507 0 0 1 4.5 4.5v49a4.504 4.504 0 0 1-4.5 4.5Z"/>
  <path fill="#CCC" d="M569.059 90.5h-20v4h20v-4Zm0 31h-20v4h20v-4Z"/>
  <path fill="#F2F2F2" d="M426.059 220h-12a4.5 4.5 0 0 1-3.18-1.32 4.5 4.5 0 0 1-1.32-3.18v-49a4.5 4.5 0 0 1 1.32-3.18 4.5 4.5 0 0 1 3.18-1.32h12a4.504 4.504 0 0 1 4.5 4.5v49a4.504 4.504 0 0 1-4.5 4.5Z"/>
  <path fill="#CCC" d="M430.059 171.5h-20v4h20v-4Zm0 31h-20v4h20v-4Z"/>
  <path fill="#F2F2F2" d="M456.059 220h-12a4.5 4.5 0 0 1-3.18-1.32 4.5 4.5 0 0 1-1.32-3.18v-49a4.5 4.5 0 0 1 1.32-3.18 4.5 4.5 0 0 1 3.18-1.32h12a4.504 4.504 0 0 1 4.5 4.5v49a4.504 4.504 0 0 1-4.5 4.5Z"/>
  <path fill="#CCC" d="M460.059 171.5h-20v4h20v-4Zm0 31h-20v4h20v-4Z"/>
  <path fill="#F2F2F2" d="M486.059 220h-12a4.5 4.5 0 0 1-3.18-1.32 4.5 4.5 0 0 1-1.32-3.18v-49a4.5 4.5 0 0 1 1.32-3.18 4.5 4.5 0 0 1 3.18-1.32h12a4.504 4.504 0 0 1 4.5 4.5v49a4.504 4.504 0 0 1-4.5 4.5Z"/>
  <path fill="#CCC" d="M490.059 171.5h-20v4h20v-4Zm0 31h-20v4h20v-4Z"/>
  <path fill="#F2F2F2" d="M519.059 58h-12a4.503 4.503 0 0 1-4.5-4.5v-49a4.502 4.502 0 0 1 4.5-4.5h12a4.507 4.507 0 0 1 4.5 4.5v49a4.506 4.506 0 0 1-4.5 4.5Z"/>
  <path fill="#CCC" d="M523.059 9.5h-20v4h20v-4Zm0 31h-20v4h20v-4Z"/>
  <path fill="#F2F2F2" d="M549.059 58h-12a4.503 4.503 0 0 1-4.5-4.5v-49a4.502 4.502 0 0 1 4.5-4.5h12a4.507 4.507 0 0 1 4.5 4.5v49a4.506 4.506 0 0 1-4.5 4.5Z"/>
  <path fill="#CCC" d="M553.059 9.5h-20v4h20v-4Zm0 31h-20v4h20v-4Z"/>
  <path fill="#F2F2F2" d="M579.059 58h-12a4.503 4.503 0 0 1-4.5-4.5v-49a4.502 4.502 0 0 1 4.5-4.5h12a4.507 4.507 0 0 1 4.5 4.5v49a4.506 4.506 0 0 1-4.5 4.5Z"/>
  <path fill="#CCC" d="M583.059 9.5h-20v4h20v-4Zm0 31h-20v4h20v-4Z"/>
  <path fill="#F2F2F2" d="M609.059 58h-12a4.503 4.503 0 0 1-4.5-4.5v-49a4.502 4.502 0 0 1 4.5-4.5h12a4.507 4.507 0 0 1 4.5 4.5v49a4.506 4.506 0 0 1-4.5 4.5Z"/>
  <path fill="#CCC" d="M613.059 9.5h-20v4h20v-4Zm0 31h-20v4h20v-4ZM654 59.5H369a1 1 0 1 1 0-2h285a.999.999 0 1 1 0 2Zm0 81H369a.997.997 0 0 1-1-1 .997.997 0 0 1 1-1h285a.997.997 0 0 1 1 1 .997.997 0 0 1-1 1Zm0 81H369a.997.997 0 0 1-1-1 .997.997 0 0 1 1-1h285a.997.997 0 0 1 1 1 .997.997 0 0 1-1 1Z"/>
  <path fill="#E6E6E6" d="M581.563 210.423a122.042 122.042 0 0 1 10.1-38.517 121.762 121.762 0 0 1 5.019-9.961.747.747 0 0 0-.28-.996.742.742 0 0 0-1.004.246 123.74 123.74 0 0 0-13.768 37.982 123.864 123.864 0 0 0-1.553 11.246c-.089.952 1.398.946 1.486 0Z"/>
  <path fill="#E6E6E6" d="M600.282 164.329c5.199 0 9.414-4.215 9.414-9.415a9.414 9.414 0 0 0-9.414-9.414 9.415 9.415 0 1 0 0 18.829Zm-17.756 46.344a79.145 79.145 0 0 1 6.553-24.988 78.715 78.715 0 0 1 3.255-6.462.485.485 0 0 0-.181-.646.481.481 0 0 0-.652.159 80.276 80.276 0 0 0-8.931 24.641 79.861 79.861 0 0 0-1.008 7.296c-.058.618.907.614.964 0Z"/>
  <path fill="#E6E6E6" d="M594.67 180.77a6.108 6.108 0 1 0-.001-12.215 6.108 6.108 0 0 0 .001 12.215Zm-13.361 29.326a79.187 79.187 0 0 1-10.203-23.732 79.081 79.081 0 0 1-1.407-7.098.483.483 0 0 0-.956.128 80.244 80.244 0 0 0 8.113 24.923 80.793 80.793 0 0 0 3.692 6.372c.335.523 1.094-.074.761-.593Z"/>
  <path fill="#E6E6E6" d="M568.735 180.341a6.108 6.108 0 1 0 0-12.217 6.108 6.108 0 0 0 0 12.217Z"/>
  <path fill="#F2F2F2" d="M562.559 215.5v-12a4.5 4.5 0 0 1 1.32-3.18 4.5 4.5 0 0 1 3.18-1.32h28a4.504 4.504 0 0 1 4.5 4.5v12a4.504 4.504 0 0 1-4.5 4.5h-28a4.5 4.5 0 0 1-3.18-1.32 4.5 4.5 0 0 1-1.32-3.18Z"/>
  <path fill="#3F3D56" d="M382 363.5H1a.998.998 0 0 1-1-1 1 1 0 0 1 1-1h381a.997.997 0 0 1 1 1 .997.997 0 0 1-1 1Z"/>
  <path fill="#2F2E41" d="M199.059 232.5c14.912 0 27-12.088 27-27s-12.088-27-27-27-27 12.088-27 27 12.088 27 27 27Z"/>
  <path fill="#FFB8B8" d="m173.405 378.826-.715-12.238 46.866-8.585 1.056 18.064-47.207 2.759Z"/>
  <path fill="#2F2E41" d="m175.675 357.641 1.38 23.604-14.861.868-2.249-38.465a14.9 14.9 0 0 1 10.763 3.739 14.885 14.885 0 0 1 4.967 10.254Z"/>
  <path fill="#FFB8B8" d="m193.789 378.714-7.785 9.471-40.236-25.519 11.489-13.978 36.532 30.026Z"/>
  <path fill="#2F2E41" d="m177.737 392.726 15.014-18.266 11.5 9.453-24.466 29.766a14.888 14.888 0 0 1-2.048-20.953Zm-6.35-58.056-5.32 25.079a4.003 4.003 0 0 0 2.148 4.419 3.98 3.98 0 0 0 1.7.41l52.298.844a3.988 3.988 0 0 0 3.924-2.949 4.006 4.006 0 0 0 .08-1.746l-4.575-25.922a3.998 3.998 0 0 0-3.939-3.305h-42.404a3.999 3.999 0 0 0-3.912 3.17Z"/>
  <path fill="#636276" d="M180.059 343.5s-51-32-61-15c-5 8.5-2.5 16.75 1.25 22.875a34.625 34.625 0 0 0 14.403 12.891l41.347 20.234 15-16-10-9-1-16Zm26-5s66-19 53 17-62 22-62 22l-5-15 17-12-3-12Z"/>
  <path fill="#FFB8B8" d="M199.398 238.226c13.564 0 24.561-10.996 24.561-24.561 0-13.564-10.997-24.561-24.561-24.561-13.565 0-24.561 10.997-24.561 24.561 0 13.565 10.996 24.561 24.561 24.561Z"/>
  <path fill="#000" d="M200.685 342.469a131.992 131.992 0 0 1-30.258-3.987l-.292-.08-13.706-63.045a23.23 23.23 0 0 1 14.933-26.943 80.46 80.46 0 0 1 51.3-1.024 23.466 23.466 0 0 1 15.635 27.764l-15.308 63.196-.216.102c-6.362 3.014-14.317 4.017-22.088 4.017Z"/>
  <path fill="#FFB8B8" d="M182.274 347.366a10.065 10.065 0 0 1 5.998-6.035 10.061 10.061 0 0 1 8.478.723l26.986-23.424 2.442 18.408-26.001 19.422a10.116 10.116 0 0 1-12.991 3.405 10.113 10.113 0 0 1-4.912-12.499Z"/>
  <path fill="#000" d="M208.012 352.476a4.553 4.553 0 0 1-1.296-.191 4.46 4.46 0 0 1-2.963-2.816l-3.257-9.229a4.472 4.472 0 0 1 1.302-4.902l36.769-22.074-14.494-64.661.369-.089c.15-.037 15-3.417 21.085 12.81 4.262 11.365 20.032 36.077 18.919 52.777a14.88 14.88 0 0 1-12.322 13.727l-41.388 23.713a4.46 4.46 0 0 1-2.724.935Z"/>
  <path fill="#FFB8B8" d="M212.136 345.173a10.06 10.06 0 0 0-5.997-6.036 10.065 10.065 0 0 0-8.478.723l-26.987-23.424-2.441 18.408 26.001 19.423a10.107 10.107 0 0 0 12.99 3.404 10.107 10.107 0 0 0 4.912-12.498Z"/>
  <path fill="#000" d="M189.106 352.476a4.465 4.465 0 0 1-2.724-.935l-44.388-21.713a14.882 14.882 0 0 1-12.322-13.727c-1.113-16.7 17.657-43.412 21.919-54.777 6.085-16.227 20.935-12.848 21.086-12.81l.368.089-17.494 66.661 39.769 20.074a4.465 4.465 0 0 1 1.413 2.249c.233.875.194 1.8-.111 2.653l-3.257 9.229a4.456 4.456 0 0 1-2.963 2.816c-.42.126-.857.19-1.296.191Z"/>
  <path fill="#D2D2D5" d="M242.059 362.5h-89a7.003 7.003 0 0 1-4.947-2.053 7.003 7.003 0 0 1-2.053-4.947v-49a7.003 7.003 0 0 1 2.053-4.947 7.003 7.003 0 0 1 4.947-2.053h89a7.003 7.003 0 0 1 4.947 2.053 7.003 7.003 0 0 1 2.053 4.947v49a7.003 7.003 0 0 1-2.053 4.947 7.003 7.003 0 0 1-4.947 2.053Z"/>
  <path fill="#fff" d="M197.559 337a6 6 0 1 0 0-12 6 6 0 0 0 0 12Z"/>
  <path fill="#2F2E41" d="M174.591 210.666c-1.456-3.693.932-8.093 4.475-9.881 3.543-1.789 7.819-1.449 11.608-.27 3.185.991 6.17 2.526 9.277 3.739a20.763 20.763 0 0 0 9.753 1.736c3.314-.374 6.613-2.232 7.969-5.28 1.406-3.158.45-7.013-1.715-9.708a18.797 18.797 0 0 0-8.612-5.535c-7.307-2.575-15.748-2.65-22.532 1.092-6.784 3.743-11.394 11.711-9.992 19.33"/>
  <path fill="#E6E6E6" d="M32.663 351.818a122.049 122.049 0 0 1 10.1-38.517 121.947 121.947 0 0 1 5.018-9.961.743.743 0 0 0-1.283-.75 123.729 123.729 0 0 0-13.768 37.983 124.141 124.141 0 0 0-1.554 11.245c-.088.953 1.4.947 1.487 0Z"/>
  <path fill="#19191A" d="M51.381 305.724a9.414 9.414 0 1 0-9.414-9.414 9.414 9.414 0 0 0 9.414 9.414Z"/>
  <path fill="#E6E6E6" d="M33.626 352.069a79.17 79.17 0 0 1 6.552-24.988 78.91 78.91 0 0 1 3.256-6.462.484.484 0 0 0-.54-.698.479.479 0 0 0-.293.211 80.269 80.269 0 0 0-8.932 24.641 80.565 80.565 0 0 0-1.008 7.296c-.057.617.908.613.965 0Z"/>
  <path fill="#19191A" d="M45.77 322.165a6.107 6.107 0 1 0 0-12.214 6.107 6.107 0 0 0 0 12.214Z"/>
  <path fill="#E6E6E6" d="M32.408 351.492a79.176 79.176 0 0 1-10.202-23.733 79.097 79.097 0 0 1-1.408-7.097.48.48 0 0 0-.54-.398.485.485 0 0 0-.415.526 80.272 80.272 0 0 0 8.113 24.923 80.458 80.458 0 0 0 3.692 6.372c.335.522 1.093-.074.76-.593Z"/>
  <path fill="#19191A" d="M19.835 321.736a6.107 6.107 0 1 0 0-12.214 6.107 6.107 0 0 0 0 12.214Z"/>
  <path fill="#F2F2F2" d="M13.659 356.896v-12a4.507 4.507 0 0 1 4.5-4.5h28a4.506 4.506 0 0 1 4.5 4.5v12a4.503 4.503 0 0 1-4.5 4.5h-28a4.507 4.507 0 0 1-4.5-4.5Z"/>
  <path fill="#0C0C0C" d="M314.409 370.901c0 6.577-5.332 9.566-11.909 9.566-6.577 0-11.909-2.989-11.909-9.566 0-6.577 2.646-14.252 11.909-11.605 9.262-3.97 11.909 5.028 11.909 11.605Z"/>
  <path fill="#3F3D56" d="M301.92 362.377a1.9 1.9 0 0 1-1.891-1.659c-.394-3.282-2.568-9.708-3.484-12.319v-.001a1.702 1.702 0 0 1 .22-1.566 1.798 1.798 0 0 1 1.289-.694 1.786 1.786 0 0 1 1.374.502 1.71 1.71 0 0 1 .469 1.276c-.18 3.351 2.263 8.765 3.735 11.694a1.912 1.912 0 0 1-.65 2.448 1.899 1.899 0 0 1-1.062.319Z"/>
  <path fill="#3F3D56" d="M310.732 354.985c4.134-3.383.891-10.307-4.283-8.978a4.178 4.178 0 0 0-1.864.994c-3.174 2.998-3.666 10.669-3.666 10.669s5.605.76 9.813-2.685Z"/>
</svg>
