<svg xmlns="http://www.w3.org/2000/svg" width="29" height="26" fill="none" viewBox="0 0 29 26">
  <path fill="#000" d="M9.34 13c0-2.393 2.09-4.334 4.667-4.334s4.667 1.94 4.667 4.334c0 2.393-2.09 4.334-4.667 4.334S9.34 15.394 9.34 13Zm-2.522 0c0 3.687 3.218 6.675 7.189 6.675 3.97 0 7.189-2.988 7.189-6.675s-3.219-6.675-7.19-6.675c-3.97 0-7.188 2.988-7.188 6.675ZM19.8 6.06c0 .861.752 1.56 1.68 1.56.928 0 1.681-.699 1.681-1.56 0-.861-.752-1.56-1.68-1.56-.929 0-1.68.699-1.68 1.56ZM8.35 23.582c-1.365-.058-2.107-.27-2.6-.448a4.4 4.4 0 0 1-1.61-.972 4.004 4.004 0 0 1-1.048-1.494c-.192-.458-.42-1.147-.481-2.414-.068-1.37-.082-1.782-.082-5.254 0-3.472.015-3.882.082-5.254.062-1.267.29-1.955.481-2.414A4.028 4.028 0 0 1 4.14 3.837a4.36 4.36 0 0 1 1.61-.972c.493-.179 1.235-.39 2.6-.448 1.476-.063 1.92-.075 5.657-.075 3.739 0 4.18.013 5.658.075 1.365.058 2.105.27 2.6.448.653.235 1.12.517 1.61.972.49.455.793.888 1.047 1.495.192.458.42 1.147.482 2.414.068 1.372.081 1.782.081 5.254 0 3.47-.013 3.882-.081 5.254-.062 1.267-.29 1.956-.482 2.414a4.017 4.017 0 0 1-1.047 1.494 4.39 4.39 0 0 1-1.61.972c-.493.179-1.235.39-2.6.448-1.476.063-1.92.075-5.658.075-3.738 0-4.181-.012-5.657-.075ZM8.235.079C6.745.142 5.726.36 4.836.683c-.92.331-1.7.777-2.48 1.5A6.335 6.335 0 0 0 .741 4.484C.395 5.31.16 6.256.091 7.64.022 9.026.006 9.47.006 13c0 3.53.016 3.974.085 5.36.068 1.384.304 2.329.65 3.155a6.33 6.33 0 0 0 1.615 2.303 6.94 6.94 0 0 0 2.48 1.5c.891.32 1.908.54 3.399.603 1.494.063 1.97.079 5.772.079 3.803 0 4.28-.015 5.772-.079 1.49-.063 2.508-.282 3.398-.604a6.944 6.944 0 0 0 2.48-1.5 6.356 6.356 0 0 0 1.615-2.302c.346-.826.584-1.771.65-3.155.068-1.387.084-1.83.084-5.36 0-3.53-.016-3.974-.084-5.36-.067-1.384-.304-2.329-.65-3.155a6.366 6.366 0 0 0-1.615-2.303 6.94 6.94 0 0 0-2.479-1.5C22.288.363 21.27.142 19.78.08 18.287.016 17.81 0 14.008 0c-3.803 0-4.28.015-5.773.079"/>
</svg>
